<svg xmlns="http://www.w3.org/2000/svg" width="128.994" height="19.79" viewBox="0 0 128.994 19.79">
  <g id="client_13" transform="translate(0 0)">
    <path id="Path_4" data-name="Path 4" d="M9.918,12.923c.968-2.28,1.883-4.443,2.8-6.6.38-.89.746-1.788,1.154-2.665A6.247,6.247,0,0,1,24.068,1.939c.538.536.787.391,1.253.023A7.862,7.862,0,0,1,32.97.44a4.931,4.931,0,0,1,2.365,1.5c.441.534.686.43,1.173.045A7.6,7.6,0,0,1,44.66.654a5.873,5.873,0,0,1,3.75,5.652c.051,3.488.022,6.977.01,10.465a2.746,2.746,0,0,1-3.11,2.965,2.7,2.7,0,0,1-2.417-2.948c-.023-2.864-.007-5.729-.007-8.594,0-.23.011-.463-.006-.692a2.65,2.65,0,0,0-2.387-2.617A2.774,2.774,0,0,0,37.3,6.812a4.588,4.588,0,0,0-.123,1.305c0,2.841.006,5.683,0,8.524a2.822,2.822,0,0,1-2.03,3.02A2.666,2.666,0,0,1,31.7,17.467a6.986,6.986,0,0,1-.089-1.17c-.008-2.865,0-5.73-.006-8.6a2.552,2.552,0,0,0-1.456-2.547,2.992,2.992,0,0,0-3.2.31,2.889,2.889,0,0,0-1.046,2.519c0,2.957.014,5.915-.006,8.872A2.671,2.671,0,0,1,23,19.738c-1.562-.023-2.62-1.224-2.626-3.035-.013-3.464,0-6.93,0-10.4,0-.184,0-.369,0-.554a.781.781,0,0,0-.585-.837.754.754,0,0,0-.947.492q-.852,1.854-1.7,3.71c-1.161,2.537-2.314,5.078-3.491,7.606a9.992,9.992,0,0,1-.9,1.555,3.436,3.436,0,0,1-5.653.058,15.924,15.924,0,0,1-1.59-3.063Q2.916,9.651.337,4.024A2.611,2.611,0,0,1,1.538.289a2.661,2.661,0,0,1,3.694,1.62Q7.409,7.07,9.59,12.23c.08.19.176.374.328.693M63.155,5.2l-2.115,6.04q-1.235,3.523-2.47,7.048c-.312.885-.76,1.267-1.505,1.3a1.622,1.622,0,0,1-1.655-1.22Q52.542,10.391,49.7,2.41A1.359,1.359,0,0,1,50.45.521,1.443,1.443,0,0,1,52.4,1.557Q54.583,7.826,56.732,14.1c.1.28.2.557.347.966l2.006-5.78Q60.4,5.5,61.715,1.713c.353-1.007.7-1.278,1.562-1.266.822.011,1.21.328,1.548,1.309q2.127,6.177,4.246,12.357c.1.282.2.56.346.953.733-2.1,1.431-4.1,2.126-6.092Q72.83,5.286,74.111,1.6c.19-.547.455-1.02,1.087-1.13a1.336,1.336,0,0,1,1.578,1.818c-.455,1.378-.977,2.734-1.468,4.1L71.1,18.1c-.04.108-.078.216-.123.322a1.647,1.647,0,0,1-1.628,1.16,1.563,1.563,0,0,1-1.5-1.22c-.67-1.913-1.325-3.833-1.988-5.75q-1.2-3.462-2.4-6.923c-.057-.163-.044-.38-.309-.492M85.294,9.888a7.135,7.135,0,0,0-4.1,1.032,3.421,3.421,0,0,0-.15,5.524,5.665,5.665,0,0,0,4.737.92c2.21-.43,3.97-1.48,4.656-3.8a9.99,9.99,0,0,0,.139-2.273.626.626,0,0,0-.575-.76,22.636,22.636,0,0,0-4.707-.64m5.244,6.749a8.068,8.068,0,0,1-4.613,2.87c-2.76.548-5.357.237-7.47-1.8A5.542,5.542,0,0,1,79.527,9.06a9.366,9.366,0,0,1,4.349-1.22,18.547,18.547,0,0,1,6.026.588c.575.156.647-.009.643-.526a4.608,4.608,0,0,0-4.606-4.936,10.568,10.568,0,0,0-5.206.786,1.222,1.222,0,0,1-1.68-.633,1.174,1.174,0,0,1,.593-1.58,12.445,12.445,0,0,1,9.935-.249,5.894,5.894,0,0,1,3.556,5.15,72.684,72.684,0,0,1,.124,7.337q.028,2.148,0,4.3a1.365,1.365,0,0,1-1.2,1.522,1.311,1.311,0,0,1-1.517-1.317c-.023-.482,0-.969,0-1.642m25.015-7.659h4.15c1.91,0,1.91,0,1.383-1.843-.953-3.326-3.927-5.1-7.01-4.155a6.6,6.6,0,0,0-4.311,5.611c-.072.473.271.384.531.385q2.628.006,5.257,0m.931,2.114c-2.052,0-4.105.013-6.157-.01-.51-.006-.63.144-.53.64.5,2.454,1.715,4.369,4.158,5.184a7.019,7.019,0,0,0,7.15-1.533,1.549,1.549,0,0,1,1.146-.545,1.154,1.154,0,0,1,1.052.778,1.178,1.178,0,0,1-.34,1.324,9.531,9.531,0,0,1-13.078.41,8.941,8.941,0,0,1-2.818-5.421A10.131,10.131,0,0,1,109.511,3.1,8.091,8.091,0,0,1,117.964.685c3.236.84,5.027,3.163,5.887,6.29a9.191,9.191,0,0,1,.322,2.534c-.011,1.14-.436,1.577-1.6,1.58-2.03.006-4.059,0-6.089,0M99.419,4.773a8.184,8.184,0,0,1,3.76-3.7,5.672,5.672,0,0,1,2.593-.627,1.3,1.3,0,0,1,1.366,1.185,1.361,1.361,0,0,1-1.066,1.612c-.335.083-.682.114-1.017.2a7.22,7.22,0,0,0-5.546,6.565c-.3,2.669-.07,5.35-.134,8.023a1.393,1.393,0,0,1-1.7,1.479,1.323,1.323,0,0,1-1.085-1.465c-.007-2.03,0-4.062,0-6.093v-9.9c0-1,.541-1.653,1.357-1.659.874-.006,1.428.636,1.433,1.665,0,.83,0,1.662,0,2.492,0,.023.008.046.039.227M126.706.865a1.842,1.842,0,0,0-1.862,1.823A1.909,1.909,0,0,0,126.709,4.6a1.97,1.97,0,0,0,1.84-1.887A1.858,1.858,0,0,0,126.706.865m2.287,1.847a2.3,2.3,0,1,1-4.608.012A2.294,2.294,0,0,1,126.692.383a2.255,2.255,0,0,1,2.3,2.329" fill="#fff" fill-rule="evenodd"/>
    <path id="Path_5" data-name="Path 5" d="M127.146,2.3c-.074-.22-.248-.279-.472-.281s-.332.079-.331.314.133.31.346.3.4-.067.457-.332m-.634-.74c1.123.008,1.383.4.924,1.31-.123.244.025.334.107.477s.16.31-.014.423c-.157.1-.305.018-.416-.123-.085-.108-.17-.217-.264-.319-.223-.242-.446-.448-.507.105-.022.2-.066.385-.314.36-.268-.029-.213-.257-.218-.43-.007-.323.022-.648-.007-.968-.055-.612.059-1.029.709-.835" fill="#fff" fill-rule="evenodd"/>
    <path id="Path_6" data-name="Path 6" d="M127.146,2.3c-.054.265-.24.32-.457.332s-.346-.052-.346-.3.106-.317.331-.314.4.06.472.281" fill="#fff" fill-rule="evenodd"/>
  </g>
</svg>
