<svg xmlns="http://www.w3.org/2000/svg" width="795.141" height="360.046" viewBox="0 0 795.141 360.046">
  <g id="client_12" transform="translate(-322.516 -219.977)">
    <path id="Path_1" data-name="Path 1" d="M1047.4,578.1q-77.7-4.95-155.5-9.9-76.5-4.95-152.9-9.9-83.55-5.4-167.2-10.7c-51-3.3-102-6.5-152.9-9.9a52.319,52.319,0,0,0-24.4,3.9c-18.1,7.7-36.4,15.2-54.7,22.6-1.6.7-3.7.4-5.5.5-.1-1.8-.7-3.8-.2-5.5,2.8-9.8,5.7-19.5,9-29.1,3.2-9.3,3.7-18.5,2.6-28.2-4.6-42.3-8.9-84.6-13.3-126.8-3.3-31.1-6.5-62.1-9.8-93.2-.6-5.8,2-9.1,7.9-9.5,30.8-2.1,61.6-4.1,92.4-6.2q58.05-3.9,116.2-7.9L666,249.9q73.65-4.95,147.4-10,74.4-4.95,148.9-9.9,72.6-4.8,145.2-9.8a16.353,16.353,0,0,0,2.2-.2c5.6-.3,8.4,2.4,7.9,7.9-.9,10.7-1.8,21.5-2.8,32.2-3.1,34.2-6.3,68.3-9.4,102.5q-5.25,57.6-10.6,115.3c-2.8,30.3-5.5,60.5-8.3,90.8-.1,1-.2,2-.3,2.9-.7,6.1-3.7,8.7-9.8,8.4-9.7-.6-19.4-1.2-29-1.9ZM516.2,372.7c.7-11.9-5.4-22.1-16.7-26.4-16.1-6.2-32.7-6.2-49-.7-13.1,4.5-18.4,14.1-18.2,30.6.1,10.7,6.7,19,18.8,23.2,7.3,2.6,14.6,4.9,21.9,7.4,7,2.4,13.9,4.6,20.8,7.2,6.2,2.3,8.4,5.7,8.3,12.3,0,6.8-3.3,11.3-10.8,14a53.034,53.034,0,0,1-30.8,1.2c-8.1-2-14.7-5.9-14.5-15.8H429.1c-.3,13.6,6.2,24.2,19,29.3a66.871,66.871,0,0,0,52.3-.2c24-10.1,22.9-40.4,9.4-50.5a60.7,60.7,0,0,0-15.1-8c-12.3-4.5-24.8-8.3-37.3-12.5-7.2-2.4-9.3-6.1-8.1-13.4.9-5.3,4.5-8,9.1-9.6,8.3-2.8,16.9-2.7,25.4-1.5,7.9,1.1,14.6,3.8,15.7,13.2C505.3,372.7,510.6,372.7,516.2,372.7Zm318-27.8H817.1v47.4H764.7v-4.6c0-13.2-.1-26.5.1-39.7,0-2.7-.8-3.7-3.6-3.5a60.257,60.257,0,0,1-9.5,0c-3.3-.3-4.3.8-4.3,4.2.1,35.5.1,71.1.1,106.6,0,1.3.1,2.6.2,3.9h17.1V409.4h52.4v46.5c0,1.4-.8,3.5,1.9,3.6,5,.1,10,0,15.2,0C834.2,421.1,834.2,383.1,834.2,344.9Zm92.9,0c-.1.9-.3,1.3-.3,1.8,0,25.3-.1,50.5,0,75.8.1,9.9,2.6,19.2,9.5,26.7,8.3,9,19,11.6,30.7,11.2,17.6-.6,31.2-11.3,33.9-28.4a114.125,114.125,0,0,0,.3-29.2c-1.4-13-8.4-22.8-21.5-26.6-12.5-3.6-24.9-4.1-36.5,5.7V345C937.6,344.9,932.5,344.9,927.1,344.9Zm-267.8,0c-.1,1-.2,1.6-.2,2.2,0,25.7-.3,51.5.2,77.2a41.462,41.462,0,0,0,4.8,18.2c7.3,14,20.2,18.4,35.2,17.9,18-.6,32.2-12.2,34.3-29.7A116.929,116.929,0,0,0,733,400c-2.1-13.8-11.2-22.3-25.1-24.9-11.4-2.1-22.5-2.1-32.4,7V345C669.8,344.9,664.7,344.9,659.3,344.9Zm188.5,31.3c-.1,1.1-.3,1.8-.3,2.6,0,15.1-.2,30.2.1,45.2a74.387,74.387,0,0,0,2.2,16.3c2.6,11.1,10,17.6,21.2,19.1a76.567,76.567,0,0,0,17.9.2c13.2-1.5,20.5-8.5,23.2-21.4a79.945,79.945,0,0,0,1.6-13.8c.2-15,.1-29.9.1-44.9,0-1.1-.2-2.1-.2-3.2h-16v4.2c0,14,.1,27.9,0,41.9a63.371,63.371,0,0,1-1,10.6c-1,5.5-3.9,9.8-9.7,10.6a42.94,42.94,0,0,1-12.4-.1,9.774,9.774,0,0,1-8.5-7.7,70.771,70.771,0,0,1-2-13.7c-.3-14-.1-27.9-.1-41.9,0-1.3-.1-2.6-.2-4Zm-267.9.1c-.1.9-.3,1.6-.3,2.3,0,14.6-.4,29.2.1,43.7a99.346,99.346,0,0,0,3.5,21.6,19.624,19.624,0,0,0,15.4,14.3,71.938,71.938,0,0,0,19.6,1.7c15.3-1.2,22.8-7.9,25.9-21.6a32.076,32.076,0,0,0,1-6.2c.3-14.9.5-29.9.7-44.8.1-3.7,0-7.3,0-11.1H629.6v4.3c0,12.9.1,25.7,0,38.6a83.816,83.816,0,0,1-1,13.2c-.9,5.5-3.5,10.3-9.5,11.2a50.119,50.119,0,0,1-13.4-.2,8.812,8.812,0,0,1-7.6-7.1,78.505,78.505,0,0,1-2.2-15.2c-.3-13.6-.1-27.2-.1-40.8,0-1.3-.1-2.6-.2-3.9Zm-13.6-.3H548.7V345H532.5a16.249,16.249,0,0,0-.2,1.8c0,25.8-.1,51.7,0,77.5a36.242,36.242,0,0,0,7.9,23.2c6.6,8.4,15.4,12.2,26.3,12.8,0-4.6-.1-8.7,0-12.8.1-2.2-.5-3.2-2.9-3.7-7.9-1.7-13.2-6.9-14-14.7-1.2-11.9-.9-23.9-1.3-36.3h17.9C566.3,387.2,566.3,381.9,566.3,376Z" fill="#fff"/>
    <path id="Path_2" data-name="Path 2" d="M943.6,416.7c0-2.7-.1-5.4,0-8.1.9-14.7,10.1-19.1,22.2-18.6,13.6.6,19.5,7.3,19.6,21,0,5.7.2,11.6-.7,17.2-1.7,10.9-9.7,16.3-22.3,15.9-10.1-.3-17.5-7.1-18.7-17.2-.4-3.4-.3-6.8-.5-10.3A.756.756,0,0,0,943.6,416.7Z" fill="#fff"/>
    <path id="Path_3" data-name="Path 3" d="M718.1,417a112.983,112.983,0,0,1-1,11.7c-1.9,10.3-9.6,15.7-21.6,15.5-10.2-.1-18.1-6.3-19.2-16.2a101.362,101.362,0,0,1,.1-22.7c1.2-10.5,9.9-16.3,21.8-15.4,12.6,1,18,6.1,19.4,18.6a78.459,78.459,0,0,1,0,8.4A.749.749,0,0,0,718.1,417Z" fill="#fff"/>
  </g>
</svg>
