<svg xmlns="http://www.w3.org/2000/svg" width="116.298" height="67.415" viewBox="0 0 116.298 67.415">
  <path id="client_17" d="M25.11,44.839c.032-.042.058-.084.09-.121.143-.184.3-.374.471-.563.058-.058.111-.121.174-.179l.005-.005.132-.132q.087-.087.19-.174c.048-.042.1-.084.148-.132s.122-.1.185-.153a.853.853,0,0,1,.069-.053c.074-.058.153-.116.233-.168.026-.016.053-.037.079-.053.132-.09.27-.179.412-.263l.122-.074c.138-.079.275-.153.423-.226.069-.032.137-.069.212-.1.058-.026.122-.053.185-.079.085-.037.169-.068.254-.105.148-.058.307-.116.465-.169a9.881,9.881,0,0,1,1.253-.316l.19-.032a12.532,12.532,0,0,1,2.025-.158h.1a.216.216,0,0,1,.058.005h.027c.021,0,.042.005.063.005h.021c.021,0,.048.005.069.005h.016c.026.005.053.005.085.011h.005c.777.095,1.824.379,2.167.379a.147.147,0,0,0,.053-.005.019.019,0,0,0,.016-.005c.005,0,.016-.005.021-.005.116-.047.063-.5.074-.958,0-.121.011-.248.016-.369a1.035,1.035,0,0,0-.09-.669c0-.005-.005-.005-.011-.01h-.005A9.394,9.394,0,0,0,30.38,39.9h-.005c-.137.032-.275.063-.412.1-.011,0-.016.005-.026.005-.063.016-.127.037-.2.053-.011.005-.027.005-.037.011-.053.016-.106.032-.164.053l-.042.016c-.058.021-.116.037-.18.058-.021.005-.042.016-.069.021a1.417,1.417,0,0,0-.137.053l-.085.031c-.042.016-.09.037-.132.053a.591.591,0,0,0-.085.037c-.042.016-.085.037-.122.053s-.079.037-.122.053-.063.026-.1.042l-.1.047-.132.063a1.208,1.208,0,0,1-.116.058c-.027.01-.048.026-.074.037-.058.032-.122.063-.18.1a.37.37,0,0,0-.063.037l-.111.063a.557.557,0,0,0-.058.037c-.063.037-.127.079-.19.121-.016.011-.037.021-.053.031a.867.867,0,0,1-.116.074l-.048.031c-.063.047-.132.09-.2.137l-.053.037c-.037.026-.074.058-.111.084-.01.005-.016.016-.026.021-.069.053-.143.111-.211.169-.021.016-.037.032-.058.047-.063.053-.127.111-.2.168-.016.011-.026.027-.042.037-.032.032-.069.063-.1.095a.625.625,0,0,1-.063.058c-.053.053-.106.1-.153.153-.021.026-.048.047-.069.074s-.063.063-.09.095-.053.058-.079.084l-.132.147-.079.095-.079.095L25.369,43c-.021.026-.048.058-.069.09s-.063.079-.09.121c-.021.026-.042.058-.063.084-.048.063-.09.126-.132.19-.016.027-.037.053-.053.079-.037.053-.074.111-.111.163-.016.021-.026.042-.042.063-.048.074-.09.147-.137.221-.016.021-.026.047-.042.069-.048.079-.1.163-.137.242-.174.316-.317.6-.439.853-.016.032-.026.063-.042.095-.032.068-.063.137-.09.205s-.048.111-.069.169c-.016.037-.026.068-.042.105-.032.079-.058.153-.085.221a3.6,3.6,0,0,0-.217.932,1.572,1.572,0,0,0,.005.279.586.586,0,0,0,.021.111.3.3,0,0,0,.026.074c.005.011.011.016.016.026a.14.14,0,0,0,.1.063h.042c.011,0,.016-.005.026-.011h.005c.011-.005.016-.011.026-.016h.005a.1.1,0,0,0,.026-.021c.011-.005.016-.016.026-.021l.005-.005.026-.026a.005.005,0,0,1,.005-.005c.005-.011.016-.016.021-.027a.005.005,0,0,1,.005-.005.119.119,0,0,1,.021-.026v-.005c.005-.01.016-.021.021-.031a.918.918,0,0,0,.1-.216,5.89,5.89,0,0,1,.5-1.29c.021-.037.037-.074.058-.111a6.447,6.447,0,0,1,.349-.579C24.994,45,25.047,44.918,25.11,44.839Zm8.728,3.776a1.293,1.293,0,0,0,.032-.179,2.451,2.451,0,0,0,.037-.5v-.01a.019.019,0,0,0-.005-.016c0-.005-.005-.011-.005-.016s0-.005-.005-.011a.1.1,0,0,0-.026-.037c-.005-.005-.011-.011-.016-.011a.161.161,0,0,0-.053-.01.131.131,0,0,0-.042.005h-.005a1.934,1.934,0,0,0-.539.263c-2.437,1.48-5.181,2.249-7.665,3.334-.275.116-.333.258-.307.39a.276.276,0,0,0,.032.084c0,.005.005.01.005.016a1,1,0,0,0,.312.305h.005l.011.011c.005.005.011.011.016.011a.073.073,0,0,0,.021.016c.016.011.037.026.063.047h.005c.026.016.058.037.1.058.433.253,1.575.674,3.743.005A6.267,6.267,0,0,0,33.838,48.615Zm1.343,7.236c-.021.084-.042.168-.069.247a4.848,4.848,0,0,1-.492,1.211c-.026-.016-.053-.037-.079-.053-.01-.011-.026-.016-.037-.026l-.037-.021a.211.211,0,0,0-.048-.026c-.005-.005-.01-.005-.016-.01a2.7,2.7,0,0,0-2.056-.279c-.005,0-.011.005-.016.005-.021.005-.042.016-.063.021-.005,0-.011.005-.016.005a1.373,1.373,0,0,0-.132.053h-.005c-.016.011-.037.016-.053.026l-.032.016c-.016.011-.032.016-.048.026l-.032.016-.074.042-.042.027-.042.026-.042.026a.166.166,0,0,1-.037.026.3.3,0,0,0-.048.037c-.01.011-.026.021-.037.032a.638.638,0,0,0-.063.058.14.14,0,0,1-.032.026c-.016.016-.032.026-.048.042a.141.141,0,0,0-.026.031.6.6,0,0,0-.053.058.071.071,0,0,0-.016.021l-.064.079a.111.111,0,0,1-.021.026.537.537,0,0,1-.048.058c-.005.01-.016.021-.021.032-.016.026-.037.052-.053.079-.005.005-.005.011-.011.011a.892.892,0,0,0-.058.095.115.115,0,0,1-.016.026c-.016.027-.026.053-.042.079l-.016.032c-.016.032-.037.068-.053.105v.005a1.1,1.1,0,0,1-.053.116.077.077,0,0,0-.01.031c-.011.032-.027.063-.037.095a.075.075,0,0,0-.011.032c-.032.084-.058.168-.085.263-.005.011-.005.021-.011.032a.862.862,0,0,0-.026.111c-.005.011-.005.026-.011.037-.021.095-.042.195-.058.295,0,.016-.005.026-.005.042-.005.042-.011.079-.016.121,0,.016-.005.032-.005.042-.005.053-.011.105-.016.163a.57.57,0,0,0-.005.095v.01a.506.506,0,0,0,.005.09v.011a.865.865,0,0,0,.037.169V59.9l.032.079a.891.891,0,0,0,.09.153,1.281,1.281,0,0,0,.185.195l.005.005c.048.037.1.074.153.111l.079.047c.005,0,.005.005.011.005a.414.414,0,0,0,.085.042h.005a.536.536,0,0,0,.079.037c.005,0,.011.005.016.005.026.011.053.021.085.037.005.005.016.005.021.011l.079.032c.005,0,.016.005.021.005.021.005.042.016.069.021.01.005.021.005.032.011a.393.393,0,0,0,.074.021c.016.005.026.005.042.011l.048.016.069.016a.354.354,0,0,0,.037.01c.058.016.116.027.174.037h.011a4.037,4.037,0,0,0,1.248.068h.011a.019.019,0,0,0,.016-.005c.011,0,.016-.005.026-.005a1.362,1.362,0,0,1-.344-.474,1.2,1.2,0,0,1-.053-.121c-.005-.01-.005-.021-.011-.032a1.2,1.2,0,0,1-.09-.416A.807.807,0,0,1,33,59.664c.005-.016.005-.031.011-.047a.587.587,0,0,1,.1-.179l.048-.047.011-.01c.016-.01.026-.026.042-.037l.011-.011.048-.032a.005.005,0,0,0,.005-.005,1.092,1.092,0,0,1,.111-.053h.005l.048-.016h.011a.162.162,0,0,1,.053-.005H33.5a.643.643,0,0,1,.143,0h.005l.079.016h.005a1.143,1.143,0,0,1,.174.058.712.712,0,0,1,.09.042c.693.337,1.491,1.3,2.041,1.611a.005.005,0,0,1,.005.005.573.573,0,0,1,.058.032l.032.016c.011.005.016.005.027.011s.037.016.053.021.005,0,.011.005l.058.016a.217.217,0,0,0,.058.005h.032a.6.6,0,0,0,.2-.042h.005a.985.985,0,0,0,.148-.074c.026-.016.053-.026.074-.042.005,0,.005-.005.01-.005.027-.016.048-.032.074-.047.005-.005.011-.005.016-.01a.729.729,0,0,1,.069-.047c.005-.005.016-.011.021-.016a.435.435,0,0,1,.063-.042.219.219,0,0,1,.037-.026c.016-.01.032-.026.048-.037.809-.611,1.871-1.685,2.379-1.332h.005c.011.011.026.016.037.026l.005.005.032.032.005.005c.01.016.021.026.032.042a.185.185,0,0,1,.026.042c.011.021.021.047.032.069a.589.589,0,0,1,.037.168.178.178,0,0,0,.005.053,1.646,1.646,0,0,1-.481,1.09.237.237,0,0,0,.026.005c.005,0,.011,0,.011.005H39.3a3.917,3.917,0,0,0,1.121-.047h.01a.675.675,0,0,0,.1-.021.236.236,0,0,0,.026-.005c.016-.005.037-.005.053-.01l.069-.016c.016-.005.032-.005.042-.011a.156.156,0,0,1,.053-.01l.053-.016.063-.016a.349.349,0,0,1,.037-.011.451.451,0,0,0,.079-.026c.011-.005.021-.005.032-.011s.048-.016.069-.021c.005,0,.016-.005.021-.005l.079-.032c.01-.005.016-.005.026-.011l.079-.032c.005-.005.016-.005.021-.011l.069-.032c.005-.005.011-.005.016-.011.026-.011.048-.026.074-.037a.041.041,0,0,1,.021-.01.762.762,0,0,0,.069-.042c.005-.005.01-.005.016-.011.021-.01.037-.026.058-.037.005-.005.01-.005.016-.011l.063-.047a.074.074,0,0,1,.021-.016.532.532,0,0,0,.058-.053l.016-.016a.36.36,0,0,0,.042-.047l.016-.016a.568.568,0,0,0,.048-.058c.005-.005.011-.016.016-.021l.042-.058c.005-.005.005-.01.01-.016a.249.249,0,0,0,.027-.053c.005-.005.005-.016.01-.021a.318.318,0,0,0,.027-.063.032.032,0,0,0,.005-.021c.005-.021.016-.047.021-.069a.019.019,0,0,1,.005-.016.266.266,0,0,0,.011-.069.031.031,0,0,1,.005-.021.4.4,0,0,0,.005-.079V59.6a.536.536,0,0,0-.005-.09c-.005-.053-.01-.111-.016-.163,0-.016-.005-.032-.005-.047-.005-.042-.011-.079-.016-.116,0-.016-.005-.032-.005-.042-.01-.053-.016-.1-.026-.153l-.032-.142c-.005-.016-.005-.026-.011-.042-.01-.037-.016-.069-.026-.1-.005-.016-.005-.026-.011-.042-.011-.042-.026-.09-.037-.132a.019.019,0,0,0-.005-.011c-.01-.037-.026-.074-.037-.11-.005-.016-.011-.026-.016-.042s-.021-.053-.032-.084c-.005-.016-.011-.026-.016-.042-.016-.037-.032-.068-.048-.105l-.016-.032a.6.6,0,0,0-.042-.079c-.005-.016-.016-.026-.021-.042l-.032-.063c-.01-.016-.016-.026-.026-.042s-.026-.047-.042-.069a.462.462,0,0,0-.037-.053.312.312,0,0,0-.037-.053.279.279,0,0,0-.032-.042c-.011-.016-.021-.026-.032-.042a.148.148,0,0,0-.037-.042c-.011-.01-.021-.026-.032-.037a.454.454,0,0,0-.069-.074c-.01-.01-.016-.021-.026-.026a.31.31,0,0,0-.042-.042l-.026-.026a.333.333,0,0,0-.048-.042l-.01-.011c-.037-.032-.074-.063-.111-.09-.005-.005-.011-.005-.016-.01a.528.528,0,0,0-.058-.042c-.005-.005-.011-.005-.016-.011-.063-.042-.127-.084-.2-.121a.428.428,0,0,1-.069-.037A.005.005,0,0,1,40.7,57a2.429,2.429,0,0,0-1.845-.063h-.005c-.074.026-.143.053-.212.084-.005,0-.01.005-.016.005-.021.011-.037.016-.058.026l-.032.016c-.016.011-.037.016-.053.026s-.027.016-.042.021l-.069.037a.166.166,0,0,1-.053.026.225.225,0,0,1-.037.021c-.016.011-.037.021-.053.032l-.032.016c-.026.016-.053.037-.079.053a2.567,2.567,0,0,1-.132-.237,15.636,15.636,0,0,1-.973-5.061c0-.021-.005-.047-.005-.068-.032-.443-.058-.89-.079-1.322-.005-.09-.01-.179-.01-.269-.005-.142-.011-.279-.016-.416-.074-1.985-.063-3.655-.127-4.045-.01-.079-.026-.153-.042-.221l-.016-.079-.016-.063c-.143-.558-.328-.6-.349-.6s-.127.026-.243.29a.087.087,0,0,0-.011.026,1.663,1.663,0,0,0-.09.284c-.026.105-.053.226-.074.369-.122.769.048,6.678-.767,9.932C35.186,55.83,35.186,55.841,35.18,55.851ZM23.366,55.53a.208.208,0,0,1-.053.042c-.005.005-.016.01-.021.016a.11.11,0,0,1-.032.021c-.005.005-.016.011-.021.016l-.037.021c-.005.005-.016.005-.021.011s-.032.016-.048.021a.018.018,0,0,0-.01.005.689.689,0,0,1-.143.037c-.026.005-.048.005-.074.011H22.9c-.021,0-.047.005-.069.005h-.074c-.053-.005-.106-.011-.159-.021-.01,0-.016-.005-.026-.005s-.026-.005-.042-.011-.026-.005-.037-.011-.026-.005-.037-.011l-.048-.016c-.01-.005-.021-.005-.032-.011-.026-.011-.053-.016-.079-.027a2.274,2.274,0,0,1-.719-.426,1.4,1.4,0,0,0,1.459,2.386,1.194,1.194,0,0,0,.185-.137,1.458,1.458,0,0,0,.465-.769c-.069-.237-.132-.474-.2-.716A2.889,2.889,0,0,1,23.366,55.53Zm16.54,9.6c-.005-.005-.005-.01-.01-.01a.756.756,0,0,1-.058-.079c-.005-.011-.016-.021-.021-.032a.558.558,0,0,0-.048-.058c-.005-.01-.016-.016-.021-.026a.558.558,0,0,0-.048-.058c-.005-.005-.011-.016-.016-.021-.016-.021-.037-.042-.053-.063-.005-.005-.011-.011-.011-.016-.021-.021-.037-.047-.058-.068l-.005-.005c-1.163-1.306-1.919-.737-2.273-.422l-.011.011c-.032.026-.058.053-.085.074l-.005.005c-.01.011-.021.016-.032.026a1.693,1.693,0,0,1-.772.321,1.463,1.463,0,0,1-.523-.168.54.54,0,0,1-.074-.042,1.073,1.073,0,0,1-.159-.111c-.3-.242-1.21-1.354-2.765.743a.005.005,0,0,1-.005.005,7.016,7.016,0,0,1-3.341,2.607c.037.005.069.005.106.011A10.343,10.343,0,0,1,32.2,69.238a5.743,5.743,0,0,0,1.67,1.048,6.508,6.508,0,0,0,2.506.537,6.386,6.386,0,0,0,1.982-.332c.1-.032.19-.063.28-.1l.2-.079a5.869,5.869,0,0,0,1.729-1.069,9.983,9.983,0,0,1,2.58-1.485c.032-.005.074-.005.106-.011A7.122,7.122,0,0,1,39.906,65.13Zm2.347,2.575a6.341,6.341,0,0,0,.7.053l-6.576.384L29.8,67.758a14.765,14.765,0,0,0,3.182-.574,14.56,14.56,0,0,1,6.782,0,18.458,18.458,0,0,0,2.437.516C42.221,67.7,42.237,67.706,42.253,67.706ZM21.024,52.654c.021.047.037.084.058.126s.037.079.058.111a1.49,1.49,0,0,0,.127.19c.011.016.026.031.037.047l.005.005c.011.011.021.026.032.037s.005.011.011.011l.016.016a.493.493,0,0,0,.328.168.277.277,0,0,0,.153-.047c.005-.005.011-.005.016-.011s.011-.005.016-.011.016-.01.021-.021l.005-.005a.886.886,0,0,0,.185-.611.7.7,0,0,1,.005-.105.737.737,0,0,1,.2-.537l.005-.005c.011-.005.016-.011.026-.016s.005-.005.011-.005.016-.011.026-.016.016-.005.021-.01h.005a.447.447,0,0,1,.143-.021,1.037,1.037,0,0,1,.18.021c.011,0,.027.005.037.005.005-.269-.01-.584-.037-.906,0-.021-.005-.042-.005-.058-.005-.063-.01-.132-.016-.195,0-.016-.005-.032-.005-.047-.016-.153-.032-.306-.048-.453a.047.047,0,0,0-.005-.026c-.084-.706-.185-1.285-.185-1.285L22.441,49l-.005.005c-.005,0-.005.005-.011.005h-.005c-.005,0-.005.005-.011.005H22.4c-.005,0-.005.005-.01.005a.005.005,0,0,0-.005.005c-.005,0-.005.005-.011.005s-.005,0-.011.005-.005.005-.01.005-.005.005-.011.005-.005.005-.011.005a.019.019,0,0,0-.011.005c-.005,0-.005,0-.01.005s-.011.005-.016.005-.005,0-.011.005-.011.005-.016.005h-.005a.34.34,0,0,1-.106.016h-.1c-.01,0-.021-.005-.032-.005h-.011c-.005,0-.016-.005-.021-.005s-.011-.005-.016-.005-.01,0-.01-.005a.041.041,0,0,1-.021-.01c-.005,0-.005,0-.011-.005s-.016-.005-.026-.011h-.005c-.011-.005-.016-.011-.026-.016a.6.6,0,0,1-.212-.269,1.611,1.611,0,0,0-.423-.637.115.115,0,0,1-.032-.021.005.005,0,0,1-.005-.005l-.032-.016c-.01-.005-.021-.005-.032-.011H21.14c-.011,0-.021-.005-.037-.005H21.1a.3.3,0,0,0-.217.111l-.005.005a.115.115,0,0,0-.021.026c-.005.005-.005.011-.011.016s-.016.016-.021.026-.011.01-.011.016l-.032.047c-.005.01-.011.016-.016.026l-.016.032-.016.032-.016.032a.134.134,0,0,1-.021.037l-.016.032c-.01.021-.021.047-.032.074A6.692,6.692,0,0,0,20.823,52c.01.031.016.068.026.1l.048.158a.361.361,0,0,1,.01.037q.048.142.1.269A.206.206,0,0,0,21.024,52.654Zm4.9-2.607a.437.437,0,0,1,.053-.031c.021-.011.042-.027.063-.037a.234.234,0,0,1,.037-.021c.021-.016.048-.026.069-.042s.016-.011.026-.016c.026-.016.058-.032.085-.047.005-.005.016-.005.021-.01a.713.713,0,0,1,.09-.042,50.94,50.94,0,0,1,6.4-2.691c.027-.011.048-.016.074-.026.048-.016.09-.032.132-.047s.085-.032.122-.042a.636.636,0,0,0,.106-.042.194.194,0,0,0,.048-.021c.09-.037.164-.069.222-.1a.115.115,0,0,0,.026-.016.4.4,0,0,0,.148-.121.019.019,0,0,0,.005-.016v-.026a.091.091,0,0,0-.011-.026c-.005-.011-.011-.016-.016-.026a1.374,1.374,0,0,0-.46-.316h-.005a1.253,1.253,0,0,0-.169-.074.005.005,0,0,1-.005-.005l-.079-.032c-.005,0-.011-.005-.016-.005a.643.643,0,0,1-.09-.037H32.8l-.085-.031c-.011-.005-.016-.005-.026-.011-.027-.011-.053-.016-.079-.026-.005,0-.011-.005-.021-.005l-.1-.031c-.011-.005-.027-.005-.037-.011a.342.342,0,0,1-.069-.021c-.016-.005-.026-.005-.042-.011-.032-.01-.063-.016-.1-.026-.016-.005-.032-.005-.042-.011l-.063-.016c-.016-.005-.037-.005-.053-.011l-.069-.016-.079-.016a.276.276,0,0,0-.069-.01c-.021-.005-.042-.005-.063-.011s-.037-.005-.058-.011-.042-.005-.063-.01l-.1-.016c-.021-.005-.048-.005-.069-.011s-.037-.005-.053-.005a.349.349,0,0,0-.074-.005c-.016,0-.032-.005-.048-.005-.048-.005-.09-.005-.138-.011a.106.106,0,0,1-.042-.005c-.027,0-.053-.005-.085-.005h-.037c-.064,0-.127-.005-.19-.005h-.005a5.534,5.534,0,0,0-1.75.269h-.005c-.037.011-.074.027-.111.037-.005,0-.016.005-.021.005-.032.011-.069.027-.1.037l-.037.016a.675.675,0,0,0-.09.037c-.042.016-.085.037-.127.053-.09.037-.174.079-.27.126-1.829.9-4.017,2.865-3.547,4.118.005.01.005.016.011.026l.005.005c.005.005.005.011.01.016l.005.005c.005.005.005.005.011.005a.165.165,0,0,0,.09.026A3.008,3.008,0,0,0,25.924,50.048ZM50.3,49.01a21.631,21.631,0,0,0-.312,2.975c.016-.005.032-.005.042-.011s.026-.005.037-.005h.005a1.156,1.156,0,0,1,.132-.01.45.45,0,0,1,.143.021c.005,0,.005,0,.01.005s.011.005.016.005a.114.114,0,0,1,.026.016c.005,0,.005.005.011.005s.016.01.026.016l.005.005c.011.011.021.016.032.026v.005a.14.14,0,0,1,.027.032.117.117,0,0,1,.026.042,1.073,1.073,0,0,1,.048.105v.005l.016.063c.005.021.011.042.016.069V52.4c.005.021.005.047.01.069v.005a.4.4,0,0,1,.005.079v.021c0,.026.005.058.005.089a.337.337,0,0,0,.005.074.177.177,0,0,0,.005.053V52.8c0,.021.005.037.005.058v.005a.793.793,0,0,0,.143.374.005.005,0,0,0,.005.005c.005.01.016.016.021.026l.011.011a.073.073,0,0,0,.021.016c.005.005.011.011.016.011s.011.005.016.011a.265.265,0,0,0,.153.047c.169,0,.365-.147.56-.474v-.005c.46-.764.92-3.386.508-4.308-.011-.026-.027-.053-.037-.079,0-.005-.005-.01-.005-.016-.011-.021-.021-.037-.032-.058,0-.005-.005-.01-.005-.016a.53.53,0,0,0-.032-.053l-.005-.005a.449.449,0,0,0-.037-.053c0-.005-.005-.005-.005-.011s-.016-.026-.026-.037l-.016-.016c-.005-.005-.011-.016-.016-.021s-.011-.016-.016-.021l-.011-.011a.3.3,0,0,0-.211-.105h-.005a.1.1,0,0,0-.037.005H51.6a.308.308,0,0,0-.074.026.019.019,0,0,0-.011.005c-.01.005-.016.01-.026.016s-.011.005-.016.011-.016.01-.021.016-.011.005-.011.01-.016.016-.026.026L51.4,48.2a.243.243,0,0,1-.037.037l-.005.005c-.011.011-.021.026-.032.037s-.005.011-.01.011a.11.11,0,0,0-.021.032c-.005.005-.005.01-.01.016s-.016.021-.021.032-.005.011-.011.016-.016.026-.021.037-.005.011-.011.016a.245.245,0,0,0-.026.053c-.005.01-.011.016-.016.026a.107.107,0,0,1-.016.026l-.016.032c-.005.011-.01.016-.01.026l-.016.032c-.005.01-.011.016-.011.026l-.016.032c-.011.021-.016.037-.027.058-.005.005-.005.016-.01.021a1.021,1.021,0,0,1-.064.11c-.01.011-.016.021-.026.032s-.016.021-.026.026v.005l-.027.026-.005.005c-.011.005-.016.016-.027.021A.005.005,0,0,0,50.88,49c-.01.005-.016.01-.026.016l-.005.005c-.005.005-.016.011-.021.016l-.005.005c-.005.005-.016.005-.021.011s-.005.005-.011.005-.016.005-.021.01-.01,0-.01.005-.011.005-.021.005-.01.005-.016.005-.011,0-.011.005-.021.005-.032.005h-.1a.779.779,0,0,1-.3-.09ZM51.2,55.2a2.377,2.377,0,0,1-.714.426.461.461,0,0,1-.079.027l-.048.016c-.01.005-.021.005-.032.011a.153.153,0,0,1-.047.011c-.005,0-.016.005-.021.005a.186.186,0,0,1-.053.011h-.011a1.134,1.134,0,0,1-.18.021H49.95a.814.814,0,0,1-.37-.079c-.005,0-.005-.005-.01-.005s-.032-.016-.048-.026a.011.011,0,0,1-.011-.011.306.306,0,0,1-.042-.032c-.005-.005-.01-.005-.01-.01-.016-.016-.037-.027-.053-.042l-.3,1.153a1.378,1.378,0,0,0,1.348,1.1,1.357,1.357,0,0,0,.867-.284,1.486,1.486,0,0,0,.217-1.98A1.449,1.449,0,0,0,51.2,55.2ZM45.013,20.24c-.782-2.807-2.828-7.794-5.979-9.648a4.93,4.93,0,0,0-5.307,0c-3.156,1.854-5.2,6.841-5.979,9.648-6.349,2.454-9.594,8.4-10.52,13.361-.085.443-.28,2.1-.3,2.554a14.869,14.869,0,0,0,.243,3.571,15.138,15.138,0,0,0,1.549,4.519,4.973,4.973,0,0,0-.782,1.059c-1.115,2.007-.951,5.925.211,8.779A5.027,5.027,0,0,0,17.841,58a4.573,4.573,0,0,0,4.478,3.171q.2,0,.4-.016a57.117,57.117,0,0,0,4.3,9.358c.481.864,3.944,6.72,9.357,6.72s8.87-5.846,9.356-6.72a56.436,56.436,0,0,0,4.314-9.358q.2.016.4.016a4.573,4.573,0,0,0,4.477-3.165,5.042,5.042,0,0,0-.312-3.923c1.163-2.86,1.332-6.778.206-8.779a4.835,4.835,0,0,0-.777-1.048,15.1,15.1,0,0,0,1.554-4.529,14.355,14.355,0,0,0,.259-2.8c0-.458-.132-2.122-.2-2.565C54.9,29.1,51.7,22.81,45.013,20.24Zm8.368,19.043c-.788,4.013-2.2,5.256-2.944,5.64.011.174.037.337.042.511,0,.084,0,.163.005.253.026-.016.058-.032.09-.053h.005c.016-.005.026-.016.042-.021a.005.005,0,0,0,.005-.005c.016-.005.027-.016.042-.021s.005-.005.011-.005.026-.016.042-.021a.018.018,0,0,0,.01-.005.148.148,0,0,0,.042-.021c.005,0,.011-.005.016-.005l.042-.016c.005-.005.016-.005.021-.01l.042-.016c.011-.005.016-.005.026-.011a.1.1,0,0,1,.037-.011c.011-.005.027-.005.037-.01s.021-.005.027-.011a1.442,1.442,0,0,1,.217-.047h.005c.021-.005.048-.005.069-.01h.011c.021,0,.042-.005.069-.005h.047a1.28,1.28,0,0,1,.523.111c.027.011.053.026.079.037a.005.005,0,0,1,.005.005c.026.016.053.026.079.042l.005.005a.726.726,0,0,1,.079.053l.005.005c.026.021.053.037.079.058a2.054,2.054,0,0,1,.159.148l.005.005c.026.026.048.053.074.084,0,.005.005.005.005.01a.587.587,0,0,1,.069.09l.011.011c.021.032.048.063.069.095.005.005.005.011.011.011.021.037.048.069.069.105,0,.005.005.005.005.01.026.037.048.079.074.121.84,1.5.555,5.719-.893,7.947a2.243,2.243,0,0,1,.47.479,2.7,2.7,0,0,1-.529,3.681,2.493,2.493,0,0,1-1.448.421,2.458,2.458,0,0,1-1.787-.743,55.808,55.808,0,0,1-4.884,11.212s-3.061,5.593-7.4,5.593-7.4-5.593-7.4-5.593a55.265,55.265,0,0,1-4.43-9.832c-.153-.448-.3-.911-.449-1.38a2.376,2.376,0,0,1-.973.611,2.537,2.537,0,0,1-.814.132c-2.685,0-3.188-3.328-1.512-4.582-1.454-2.223-1.734-6.441-.9-7.947.021-.042.048-.079.069-.116.005-.005.005-.01.011-.021l.063-.095a.094.094,0,0,1,.021-.027c.021-.026.037-.053.058-.079.011-.011.016-.021.026-.031a.787.787,0,0,1,.058-.069.139.139,0,0,0,.026-.031c.016-.016.032-.037.048-.053s.026-.026.037-.042l.032-.032c.016-.016.037-.032.053-.047l.027-.026.063-.047c.005-.005.016-.01.021-.016A.711.711,0,0,1,20.6,45.6L20.6,45.6a1.367,1.367,0,0,1,1.237-.116c.005,0,.011.005.016.005l.037.016c.01.005.021.005.032.01s.016.005.026.011l.042.016c.005,0,.011.005.016.005s.037.016.053.026c.079.037.148.079.212.116.005-.084.005-.169.011-.253.005-.132.016-.253.032-.384l.016-.126c-.048-.027-.1-.053-.148-.084a.157.157,0,0,1-.037-.026c-.026-.016-.053-.037-.079-.053-.042-.026-.085-.058-.127-.09a6.529,6.529,0,0,1-1.961-3.139c-.063-.179-.122-.369-.185-.569-.032-.1-.058-.2-.09-.305s-.058-.211-.085-.321c-.085-.326-.164-.679-.238-1.053a12.438,12.438,0,0,1-.206-1.843c-.016-.39-.011-.785.005-1.19a22.574,22.574,0,0,1,5.281,1.97c.185-.353.375-.7.576-1.043.164-.279.333-.558.5-.832-.116-.068-.3-.179-.529-.316-.021-.011-.042-.026-.063-.037a14.6,14.6,0,0,0-5.5-1.98,16.722,16.722,0,0,1,3.843-8c.058-.063.116-.126.174-.195.174-.19.359-.379.55-.558s.381-.358.581-.532c.079-.069.159-.137.238-.2.259-.216.529-.421.809-.621q.222-.158.444-.3c.2-.126.4-.247.6-.369.069-.042.137-.079.206-.116a13.722,13.722,0,0,1,2.77-1.153c.01-.068.021-.142.037-.216.005-.037.016-.074.021-.116.026-.116.053-.242.085-.374q.063-.261.143-.553c.026-.095.058-.195.085-.295.016-.053.032-.1.048-.153.809-2.617,2.59-6.435,4.789-7.731v.016c.074,1.38.132,2.733.169,4.071.011.337.021.669.026,1,.042,1.67.058,3.318.058,4.977v1c-.005,1-.011,2-.021,3-.011.679-.016,1.364-.027,2.054.27-.047.539-.084.814-.105h.021q.246-.016.492-.016a6.628,6.628,0,0,1,1.285.121c-.005-.337-.011-.674-.016-1.006-.058-3.75-.063-7.331.048-11.023.021-.669.042-1.343.074-2.022s.063-1.364.1-2.054V12.52c2.765,1.622,4.863,7.22,5.212,9.437,6.333,1.87,9.578,7.6,10.318,12.718a8.7,8.7,0,0,0-1.892.369,1.454,1.454,0,0,0-.164.053q-.254.079-.507.174c-.037.016-.074.026-.111.042-.238.089-.47.179-.692.274-.164.069-.328.142-.486.216s-.3.142-.444.211c-.365.179-.692.353-.972.511-.032.016-.063.037-.1.053-.2.116-.375.216-.513.3.021.032.037.063.058.095a20.213,20.213,0,0,1,.989,1.822,15.069,15.069,0,0,1,1.861-.848c.021-.011.042-.016.069-.026.116-.042.233-.09.344-.132a.076.076,0,0,1,.037-.011c.338-.126.677-.242.988-.347.058-.021.116-.037.169-.058h.005c.084-.026.164-.053.243-.079s.169-.053.249-.079.143-.042.206-.063c.079-.021.153-.042.222-.063.037-.011.074-.021.106-.032.048-.016.1-.026.138-.037.026-.005.058-.016.084-.021.122-.032.222-.053.3-.069A13.194,13.194,0,0,1,53.381,39.283Zm-9.2,6.957c-.005,0-.005,0-.011-.005l-.116-.047c-.032-.016-.069-.026-.1-.042-.005-.005-.016-.005-.021-.011-.037-.016-.074-.026-.111-.042-.005,0-.005,0-.011-.005a5.6,5.6,0,0,0-2.078-.305h-.026c-.032,0-.063.005-.1.005h-.021l-.185.016H41.4c-.032.005-.058.005-.09.011a.066.066,0,0,0-.032.005c-.09.011-.175.021-.259.037-.011,0-.021.005-.037.005l-.074.016c-.011,0-.021.005-.032.005-.042.01-.084.016-.127.026-.016.005-.027.005-.042.011l-.063.016c-.016.005-.032.005-.048.01l-.074.016a.311.311,0,0,0-.074.021L40.4,46l-.058.016-.048.016c-.032.01-.058.016-.09.026-.01.005-.021.005-.032.011s-.048.016-.069.021-.021.005-.032.011c-.026.011-.048.016-.074.026-.005,0-.011.005-.016.005-.032.011-.058.021-.084.032-.005.005-.016.005-.021.01a.37.37,0,0,1-.069.026c-.005,0-.011.005-.016.005-.026.011-.053.026-.079.037-.005,0-.005.005-.011.005l-.069.031a.019.019,0,0,0-.011.005c-.048.026-.1.047-.137.074-.005,0-.005.005-.011.005-.021.01-.037.021-.058.032a.443.443,0,0,0-.053.037l-.005.005a.3.3,0,0,0-.042.032l-.005.005a.314.314,0,0,0-.042.032l-.032.032-.005.005-.026.026a.094.094,0,0,0-.021.026l-.005.005a.039.039,0,0,0-.011.021.005.005,0,0,1-.005.005.031.031,0,0,0-.005.021v.026c0,.005.005.01.005.016a.34.34,0,0,0,.143.121c.011.005.016.011.027.016a5.211,5.211,0,0,0,.518.211l.085.032c.063.021.127.047.2.068.032.011.069.026.106.037.021.005.037.016.058.021l.391.137.629.226A54.471,54.471,0,0,1,46.44,49.79l.09.047c.005,0,.011.005.016.005a.883.883,0,0,1,.1.053l.005.005c.063.037.132.074.2.116a.018.018,0,0,1,.011.005l.09.058.037.021c.011.005.021.016.032.021a2.509,2.509,0,0,0,.862.432.264.264,0,0,0,.063-.011h.005c.005-.005.011-.005.016-.01s.01-.005.016-.011l.005-.005c.005-.005.005-.011.011-.016l.005-.005a.039.039,0,0,0,.01-.026C48.491,49.163,46.064,47.067,44.183,46.24ZM47.5,51.59l-.011-.01a.736.736,0,0,0-.243-.158c-2.485-1.085-5.217-1.854-7.66-3.334l-.079-.047a.452.452,0,0,1-.053-.032C39.446,48,39.441,48,39.436,48c-.032-.021-.063-.037-.09-.053a.039.039,0,0,0-.021-.011l-.037-.021a.3.3,0,0,1-.042-.021c-.005-.005-.016-.005-.021-.011a.384.384,0,0,0-.053-.021c-.005,0-.005-.005-.011-.005a.53.53,0,0,0-.1-.032h-.005c-.016,0-.026-.005-.042-.005a.068.068,0,0,0-.032.005c-.01,0-.016.005-.021.005s-.016.005-.021.01c-.079.069-.048.279-.011.59.106.89,1.422,3.049,4.324,3.939.09.026.174.053.259.079h.005c2.167.6,3.235.079,3.568-.142a.324.324,0,0,0,.063-.047.073.073,0,0,0,.021-.016.093.093,0,0,0,.026-.026s.5-.311.323-.59A.085.085,0,0,0,47.5,51.59Zm1.639-4.66a6.775,6.775,0,0,0-.988-2.575L48,44.1c-.01-.016-.021-.037-.032-.053-.048-.079-.1-.158-.148-.237a.107.107,0,0,0-.021-.031c-.048-.069-.09-.142-.137-.211l-.032-.047c-.053-.074-.1-.147-.153-.216a.28.28,0,0,0-.032-.042l-.137-.184c-.011-.011-.016-.027-.026-.037-.053-.068-.106-.132-.159-.195-.016-.016-.026-.032-.042-.047-.048-.058-.1-.116-.153-.174a.077.077,0,0,1-.016-.021c-.053-.063-.111-.121-.164-.179a.456.456,0,0,1-.048-.053c-.053-.058-.111-.11-.164-.168a.247.247,0,0,1-.037-.037c-.048-.047-.1-.09-.143-.132-.016-.016-.037-.032-.053-.047l-.164-.147c-.016-.016-.037-.032-.053-.047-.042-.037-.085-.074-.132-.111-.016-.016-.037-.032-.053-.047-.053-.042-.111-.084-.164-.126l-.063-.047c-.042-.032-.085-.063-.132-.095l-.063-.047-.153-.105c-.026-.016-.048-.032-.074-.047l-.143-.095-.079-.047c-.042-.027-.085-.053-.127-.074a.538.538,0,0,0-.074-.042c-.053-.032-.111-.063-.164-.09-.026-.011-.048-.026-.074-.037s-.079-.042-.116-.063-.048-.026-.074-.037l-.164-.079c-.026-.011-.053-.026-.074-.037l-.121-.058-.074-.032c-.053-.021-.106-.047-.159-.068l-.074-.032c-.048-.021-.1-.037-.143-.058a.408.408,0,0,0-.074-.026c-.048-.016-.1-.037-.143-.053-.021-.01-.047-.016-.069-.026-.058-.021-.116-.042-.174-.058l-.053-.016c-.047-.016-.1-.031-.148-.047l-.053-.016c-.058-.016-.122-.037-.18-.053a.159.159,0,0,0-.048-.01c-.058-.016-.111-.032-.169-.042-.01,0-.016-.005-.026-.005l-.19-.047c-.011,0-.021-.005-.032-.005-.132-.032-.27-.058-.4-.079h-.011a9.219,9.219,0,0,0-4.3.147c-.005.005-.01.005-.01.011-.164.211-.069.648-.063,1.037,0,.463-.048.911.063.959.005,0,.01.005.021.005a.02.02,0,0,1,.016.005c.016,0,.032.005.053.005.3,0,1.147-.216,1.871-.332l.1-.016a.032.032,0,0,0,.021-.005c.026-.005.048-.005.074-.011.011,0,.021-.005.032-.005s.042-.005.063-.01.021-.005.032-.005.037-.005.058-.005a.107.107,0,0,0,.037-.005c.016,0,.037-.005.053-.005a.067.067,0,0,0,.032-.005c.016,0,.037-.005.053-.005h.032a.163.163,0,0,0,.053-.005h.1c7.057,0,8.321,5.182,8.4,5.477a1.024,1.024,0,0,0,.1.216v.005a.051.051,0,0,0,.021.026.005.005,0,0,0,.005.005.1.1,0,0,0,.021.027l.005.005a.041.041,0,0,0,.021.021l.005.005.021.021.005.005.021.021.005.005c.005.005.016.011.021.016l.005.005a.041.041,0,0,0,.021.01.005.005,0,0,1,.005.005.031.031,0,0,0,.021.005h.048c.111-.011.174-.148.18-.4C49.141,47.041,49.136,46.988,49.136,46.93Zm69.82-3.408c8.928,0,14.251-6.672,14.251-15,0-8.574-5.318-15.246-14.251-15.246s-14.247,6.672-14.247,15.246C104.709,36.85,110.027,43.522,118.956,43.522Zm0-24.91c5.725,0,7.876,4.85,7.876,9.906,0,4.813-2.151,9.664-7.876,9.664s-7.877-4.856-7.877-9.664C111.085,23.463,113.236,18.613,118.956,18.613ZM89.824,64.9h6.412c-.365,4.045-2.717,6.23-6.9,6.23-5.725,0-7.876-4.85-7.876-9.664,0-5.056,2.152-9.906,7.876-9.906a5.892,5.892,0,0,1,6.127,4.85h6.09c-.651-6.593-6.291-10.191-12.217-10.191-8.928,0-14.246,6.673-14.246,15.246,0,8.331,5.318,15,14.246,15a9.768,9.768,0,0,0,7.956-3.96l.65,3.276H102V60.169H89.824Zm29.132-18.685c-8.929,0-14.247,6.672-14.247,15.246,0,8.332,5.318,15,14.247,15s14.251-6.673,14.251-15C133.207,52.891,127.889,46.219,118.956,46.219Zm0,24.91c-5.725,0-7.877-4.85-7.877-9.664,0-5.056,2.152-9.906,7.877-9.906s7.876,4.85,7.876,9.906C126.832,66.278,124.681,71.129,118.956,71.129ZM85.362,42.838h6.375V19.3h8.685V13.963H76.677V19.3h8.685Z" transform="translate(-16.909 -9.817)" fill="#fff"/>
</svg>
