<svg id="client_15" xmlns="http://www.w3.org/2000/svg" width="128.963" height="33.94" viewBox="0 0 128.963 33.94">
  <path id="Path_13" data-name="Path 13" d="M22.5,25.839c0-.38-.246-.662-.749-.772v-.246c.279,0,1.206.038,1.467.038.225,0,1.123-.038,1.4-.038v.246a.766.766,0,0,0-.712.772v4.827c0,1.529.833,2.393,2.576,2.393,1.5,0,2.67-.68,2.67-2.28v-4.96c0-.358-.223-.642-.786-.752v-.246c.2,0,.971.038,1.233.038.224,0,1.028-.038,1.234-.038v.246c-.543.13-.784.376-.784.753v4.694c0,2.106-1.216,3.316-3.842,3.316-2.443,0-3.71-1.119-3.71-3.1V25.839Zm10.483,7.613c.569-.107.793-.4.793-.753V26.027a.915.915,0,0,0-.809-.96v-.246c.289.021.773.034,1.02.034a7.42,7.42,0,0,0,.809-.034l5.744,6.8V25.82c0-.358-.225-.642-.786-.753v-.246c.206,0,.945.038,1.208.038.228,0,1.02-.038,1.229-.038v.246c-.548.13-.813.377-.813.753v8.01h-.346a2.979,2.979,0,0,1-1.256-.98l-5.14-6.03V32.7c0,.357.205.64.766.752V33.7c-.206,0-.945-.04-1.208-.04-.227,0-1,.04-1.21.04v-.247Zm45.328-1.8h.243a2.072,2.072,0,0,0,.809,1.215,2.941,2.941,0,0,0,1.584.434c1.155,0,1.888-.577,1.888-1.49,0-.945-.938-1.435-2.062-2-.837-.422-2.48-1.118-2.48-2.718,0-1.49,1.129-2.418,2.933-2.418,1.191,0,1.75.294,2.554.256l-.016,1.808h-.245A2.182,2.182,0,0,0,81.187,25.3c-1.176,0-1.616.678-1.616,1.367,0,.987.958,1.484,2.044,1.973,1.222.548,2.547,1.24,2.547,2.781,0,1.46-1.133,2.517-3.2,2.517a13.149,13.149,0,0,1-2.62-.435l-.025-1.852ZM103,30.026l-2.34-3.78a2.4,2.4,0,0,0-1.15-1.18v-.245c.32,0,1.187.039,1.432.039.223,0,1.157-.039,1.494-.039v.245c-.3.054-.439.2-.439.432a1.544,1.544,0,0,0,.272.682l1.724,2.881,1.662-2.88a1.808,1.808,0,0,0,.286-.763c0-.172-.12-.314-.4-.352v-.245c.281,0,.872.039,1.06.039s.868-.039,1.148-.039v.229a3.193,3.193,0,0,0-1.426,1.483l-2.126,3.58m.145-.451v3.02a.827.827,0,0,0,.738.77V33.7c-.285,0-1.216-.04-1.486-.04-.226,0-1.12.04-1.442.04v-.247a.849.849,0,0,0,.76-.77V29.794M59.539,24.821h5.484a1.916,1.916,0,0,0,.636-.093h.246l-.039,1.8h-.243a1.3,1.3,0,0,0-1.487-1.017H61.755v3.129H63.59a4.062,4.062,0,0,0,.733-.057A.806.806,0,0,0,65,27.9h.245c-.018.27-.018.888-.018,1.07s.018.834.018,1.128H65a.929.929,0,0,0-.677-.72,3.66,3.66,0,0,0-.733-.069H61.755v3.67h2.59a1.583,1.583,0,0,0,1.74-1.147l.243.057-.242,1.844a22.431,22.431,0,0,0-2.3-.075H61.048c-.263,0-1.23.039-1.512.039v-.246c.494-.1.782-.34.782-.818V25.848c0-.421-.224-.684-.78-.778v-.249ZM45.53,25.9c0-.455-.269-.706-.8-.82v-.245c.294,0,1.246.038,1.523.038.232,0,1.21-.038,1.509-.038v.244c-.526.115-.8.342-.8.82v6.741c0,.455.27.7.8.816V33.7c-.3,0-1.235-.039-1.508-.039-.236,0-1.23.039-1.524.039v-.247c.54-.1.8-.34.8-.816V25.9Zm41.606,0c0-.455-.272-.706-.8-.82v-.245c.295,0,1.247.038,1.523.038.234,0,1.212-.038,1.51-.038v.244c-.526.115-.8.342-.8.82v6.741c0,.455.27.7.8.816V33.7c-.3,0-1.233-.039-1.51-.039-.233,0-1.228.039-1.523.039v-.247c.54-.1.8-.34.8-.816V25.9Zm7.624-1.037c-3.007,0-3.488-.056-4.1-.095l0,1.83h.245a1.153,1.153,0,0,1,1.253-1h1.886v7.042c0,.476-.258.714-.8.816V33.7c.3,0,1.3-.039,1.53-.039.276,0,1.217.039,1.51.039v-.247c-.531-.113-.8-.36-.8-.816V25.594h1.87a1.158,1.158,0,0,1,1.257,1h.242l0-1.83c-.61.039-1.092.095-4.1.095m-23.99,7.777c0,.455.287.7.817.816V33.7c-.294,0-1.255-.039-1.53-.039-.235,0-1.174.039-1.47.039v-.247c.492-.1.782-.34.782-.816V25.827c0-.419-.226-.682-.78-.777v-.245c.294,0,1.224.037,1.487.037.43,0,1.653-.073,2.135-.073,2.107,0,3.28.878,3.28,2.383,0,1.183-.873,1.983-2.218,2.31a2.711,2.711,0,0,1,.613.538c.372.442,1.375,1.893,1.792,2.4s.948,1.077,1.518,1.1v.2a5.573,5.573,0,0,1-1.047.112,2.218,2.218,0,0,1-1.841-.93c-.48-.59-1.295-1.811-1.775-2.428a2,2,0,0,0-1.358-.813q-.2-.036-.4-.06v3.054Zm0-3.618a9.049,9.049,0,0,0,1.1.056c1.65,0,2.17-.956,2.17-1.8,0-1.2-.793-1.939-2.237-1.939a6.35,6.35,0,0,0-1.033.095ZM49.878,25.925a1.366,1.366,0,0,0-.99-.854v-.25c.313,0,1.4.039,1.634.039.219,0,1.166-.04,1.487-.04v.243c-.285.056-.61.215-.61.509a3.2,3.2,0,0,0,.368,1.036l2.27,5.2,2.15-5.213a3.086,3.086,0,0,0,.291-1c0-.276-.252-.467-.609-.54V24.82c.286,0,.986.04,1.2.04.2,0,1.02-.04,1.335-.04v.25a1.675,1.675,0,0,0-1.164,1.148L54.08,33.73h-.716l-3.487-7.805ZM57.986,2.233A2.6,2.6,0,0,0,56.11.615V.142c.59,0,2.553.071,3,.071.416,0,2.317-.071,2.922-.071V.6c-.537.106-1.154.408-1.154.966a6.231,6.231,0,0,0,.694,1.958l4.306,9.863,4.075-9.88a5.938,5.938,0,0,0,.555-1.884c0-.525-.482-.881-1.158-1.023V.142c.54,0,1.85.071,2.266.071.379,0,1.936-.071,2.528-.071V.589a3.2,3.2,0,0,0-2.2,2.2l-5.99,14.24H64.6ZM0,16.485c.782-.18,1.332-.538,1.332-1.43V2C1.332,1.143.82.787,0,.572V.108c.41,0,2.18.07,2.61.07.5,0,2.351-.07,2.759-.07V.572C4.588.75,4.009,1.108,4.009,2V7.453h9.653V2c0-.892-.515-1.25-1.33-1.428V.108c.407,0,2.229.07,2.724.07.427,0,2.238-.07,2.642-.07V.572C16.916.75,16.336,1.108,16.336,2V15.055c0,.857.544,1.216,1.362,1.43v.428c-.4,0-2.215-.035-2.642-.035-.495,0-2.317.035-2.724.035v-.428c.776-.18,1.33-.538,1.33-1.43V8.885H4.008v6.17c0,.892.543,1.216,1.36,1.43v.428c-.407,0-2.262-.035-2.758-.035-.43,0-2.2.035-2.61.035v-.428Zm111.663,0c1-.18,1.554-.58,1.554-1.5V2c0-.895-.545-1.25-1.513-1.428V.108c.558,0,2.373.07,2.876.07.812,0,3.076-.178,4.839-.178,5.938,0,9.544,3.34,9.544,8.421,0,4.938-3.752,8.6-9.875,8.6-1.765,0-3.859-.14-4.678-.14-.5,0-2.191.07-2.747.07v-.463Zm4.228-.86a17.542,17.542,0,0,0,2.6.18c4.989,0,7.586-3.025,7.586-7.244,0-4.374-2.74-7.451-7.4-7.451a20.721,20.721,0,0,0-2.785.177V15.625Zm-71.447-.689c0,.865.544,1.335,1.545,1.55v.463c-.557,0-2.374-.071-2.9-.071-.441,0-2.224.07-2.78.07v-.463c.929-.18,1.477-.645,1.477-1.549V2.046c0-.794-.426-1.295-1.476-1.474V.108c.558,0,2.319.07,2.813.07.817,0,3.132-.137,4.046-.137,3.993,0,6.216,1.664,6.216,4.51,0,2.244-1.658,3.754-4.2,4.377A5.13,5.13,0,0,1,50.344,9.95c.705.834,2.65,3.639,3.436,4.6s1.794,2.036,2.873,2.086v.378a10.64,10.64,0,0,1-1.976.208,4.2,4.2,0,0,1-3.495-1.764c-.907-1.114-2.493-3.482-3.4-4.651a3.781,3.781,0,0,0-2.565-1.54q-.383-.066-.77-.108v5.777Zm0-6.847a17.514,17.514,0,0,0,2.085.106c3.123,0,4.1-1.811,4.1-3.411,0-2.273-1.5-3.674-4.238-3.674a12.251,12.251,0,0,0-1.95.177v6.8Zm52.637,6.847c0,.865.546,1.335,1.548,1.55v.463c-.557,0-2.371-.071-2.894-.071-.449,0-2.225.07-2.784.07v-.463c.928-.18,1.477-.645,1.477-1.549V2.046c0-.794-.43-1.295-1.474-1.474V.108c.56,0,2.315.07,2.813.07.818,0,3.132-.137,4.04-.137,4,0,6.217,1.664,6.217,4.51,0,2.244-1.654,3.754-4.2,4.377a5.051,5.051,0,0,1,1.157,1.022c.711.834,2.656,3.639,3.44,4.6s1.8,2.036,2.87,2.086v.378a10.571,10.571,0,0,1-1.968.208,4.206,4.206,0,0,1-3.5-1.764c-.906-1.114-2.487-3.482-3.4-4.651a3.776,3.776,0,0,0-2.56-1.54q-.386-.066-.776-.108v5.777Zm0-6.847a17.621,17.621,0,0,0,2.087.106c3.124,0,4.1-1.811,4.1-3.411,0-2.273-1.5-3.674-4.234-3.674a12.325,12.325,0,0,0-1.956.177v6.8ZM20.238,16.482a2.825,2.825,0,0,0,2.022-1.86l5.346-12.96A14.229,14.229,0,0,0,28.1.024h1.5a15.5,15.5,0,0,0,.49,1.642l5.65,12.991A2.729,2.729,0,0,0,37.7,16.482l0,.432c-.611,0-2.513-.035-2.946-.035s-2.246.035-2.857.035l0-.432c.823-.2,1.082-.625,1.082-1.033a3.138,3.138,0,0,0-.314-1.143l-1.215-2.791H25.22l-1.112,2.807a3.481,3.481,0,0,0-.273,1.07c0,.468.243.842,1.177,1.09l0,.432c-.553,0-2.013-.035-2.355-.035l-2.418.035v-.432Zm10.644-6.29-2.658-6.24-2.476,6.24Zm42.323,6.29a2.821,2.821,0,0,0,2.021-1.86l5.348-12.96a14.463,14.463,0,0,0,.5-1.638h1.5a15.229,15.229,0,0,0,.487,1.642L88.7,14.657a2.724,2.724,0,0,0,1.958,1.825l0,.432c-.61,0-2.513-.035-2.948-.035s-2.242.035-2.854.035v-.432c.828-.2,1.083-.625,1.083-1.033a3.166,3.166,0,0,0-.31-1.143l-1.219-2.791H78.186l-1.113,2.807a3.478,3.478,0,0,0-.272,1.07c0,.468.243.842,1.177,1.09v.432c-.555,0-2.013-.035-2.357-.035l-2.418.035Zm10.644-6.29-2.66-6.24-2.474,6.24Z" fill="#fff" fill-rule="evenodd"/>
</svg>
