<svg xmlns="http://www.w3.org/2000/svg" width="43.234" height="43.233" viewBox="0 0 43.234 43.233">
  <path id="client_16" d="M21.618,43.233A21.617,21.617,0,1,1,43.234,21.615,21.608,21.608,0,0,1,21.618,43.233Zm0-42.217a20.6,20.6,0,1,0,20.6,20.6A20.6,20.6,0,0,0,21.618,1.016ZM39.936,27.778l-.112.023-.062-.078a16.317,16.317,0,0,0,.72-4.611c-.009-2.635-1.079-4.251-2.456-4.251a1.4,1.4,0,0,0-1.437,1.5c0,1.617,1.977,1.737,1.977,5.271a13.967,13.967,0,0,1-.778,4.311C35.572,37.423,28.505,40.9,21.621,40.9a17.111,17.111,0,0,1-6.1-.953.1.1,0,0,1-.029-.119l.087-.062a14.942,14.942,0,0,0,4.6.716c2.635,0,4.191-1.077,4.191-2.4a1.482,1.482,0,0,0-1.5-1.494c-1.617,0-1.736,2.035-5.209,2.035a14.35,14.35,0,0,1-4.372-.778C5.868,35.569,2.329,28.561,2.335,21.615a20,20,0,0,1,.966-6.1l.107-.018.063.078a15.7,15.7,0,0,0-.717,4.605c0,2.635,1.077,4.191,2.454,4.191A1.42,1.42,0,0,0,6.647,22.93c0-1.617-1.978-1.8-1.978-5.27a14.359,14.359,0,0,1,.778-4.371c2.278-7.421,9.284-10.9,16.171-10.955a18.1,18.1,0,0,1,6.106,1.018l.019.108-.079.06a13.284,13.284,0,0,0-4.609-.766c-2.575,0-4.191,1.077-4.191,2.455a1.434,1.434,0,0,0,1.5,1.438c1.617,0,1.737-1.977,5.209-1.977a14.317,14.317,0,0,1,4.372.779c7.484,2.274,10.9,9.342,10.957,16.167A18.721,18.721,0,0,1,39.936,27.778Zm-10.3-5.143a3.437,3.437,0,0,0-3.594,3.293c0,1.5.9,2.693,2.1,2.693a.768.768,0,0,0,.838-.778c0-.777-1.032-.968-.952-2.132a1.457,1.457,0,0,1,1.491-1.281c1.438,0,2.109,1.394,2.109,2.829a3.681,3.681,0,0,1-3.6,3.758c-2.518,0-4.131-2.4-4.131-4.97,0-3.833,2.514-5.33,3.831-5.688.014,0,3.443.612,3.337-.9-.047-.664-1.036-.92-1.754-.949a4.884,4.884,0,0,0-1.595.255,1.94,1.94,0,0,1-.886-1.1c2.455-1.856,4.19-3.652,4.19-5.688a1.965,1.965,0,0,0-2.1-2.037c-2.455,0-4.312,3.114-4.312,5.929a5.106,5.106,0,0,0,.121,1.379c-1.559,1.137-2.715,1.843-4.812,3.1a10.93,10.93,0,0,1,.23-1.815c.719-.779,1.7-1.944,1.7-2.843a.706.706,0,0,0-.72-.778c-1.2,0-2.1,1.8-2.334,3.054a3.951,3.951,0,0,1-2.516,1.5,1.091,1.091,0,0,1-1.019-.9c2.275-.779,5.091-3.894,5.091-6.708a1.816,1.816,0,0,0-2.036-1.916c-2.695,0-4.971,4.013-4.971,7.125-.958,0-1.317-1.018-1.317-1.8a11.879,11.879,0,0,1,.3-1.8.485.485,0,0,0-.479-.54c-.9,0-1.438,1.2-1.438,2.575a3.14,3.14,0,0,0,2.995,3.234,2.736,2.736,0,0,0,2.514,2.215,3.665,3.665,0,0,0,2.4-.837c-.062.419-.12.777-.18,1.137a29.148,29.148,0,0,0-6.288,3.892A6.232,6.232,0,0,0,9.7,29.4a3.3,3.3,0,0,0,3.474,3.473c2.755,0,4.852-2.216,5.868-5.27a23.664,23.664,0,0,0,.792-5.444,54.639,54.639,0,0,0,5.5-3.478,2.384,2.384,0,0,0,.6.719,7.466,7.466,0,0,0-4.251,6.887c0,3.114,2.1,6.586,6.227,6.586a5.7,5.7,0,0,0,5.749-5.507C33.653,24.91,32.275,22.635,29.641,22.635ZM13.174,31.017a1.359,1.359,0,0,1-1.495-1.49c0-2.574,3.568-5.031,6.264-6.351C17.463,26.77,16.25,30.876,13.174,31.017ZM15.15,16.886c0-1.977,1.95-5.733,3.143-5.336C19.7,12.019,17.126,15.808,15.15,16.886Zm11.318-.9c0-2.454,1.662-4.843,2.57-4.389C30.072,12.116,28.265,14.43,26.468,15.987Z" fill="#fff"/>
</svg>
