<svg width="207" height="46" viewBox="0 0 207 46" fill="none" xmlns="http://www.w3.org/2000/svg">
<path d="M3.24558 0.496704V10.358H24.1336C15.4811 18.9183 0 34.1917 0 34.1917L6.92917 41.3433C6.92917 41.3433 25.1174 23.0295 34.8541 13.2833V41.2354H44.4903V0.496704H3.24558Z" fill="#F8F7F7"/>
<path d="M25.4334 41.2356C29.0184 41.2356 31.9246 38.3266 31.9246 34.7381C31.9246 31.1496 29.0184 28.2406 25.4334 28.2406C21.8485 28.2406 18.9423 31.1496 18.9423 34.7381C18.9423 38.3266 21.8485 41.2356 25.4334 41.2356Z" fill="#F8F7F7"/>
<path d="M182.499 17.5095C182.176 18.0485 181.415 18.5948 180.439 18.5948C179.139 18.5948 178.708 17.8329 178.708 17.0782C178.708 16.2085 179.354 15.6695 180.439 15.6695C181.523 15.6695 181.954 15.7773 182.499 16.1007V17.5095ZM185.53 20.866V13.2832C185.53 10.6813 183.691 9.27258 180.877 9.27258C179.038 9.27258 177.954 9.70383 176.547 10.4657L177.739 12.5213C178.823 11.9823 179.469 11.7595 180.877 11.7595C181.961 11.7595 182.499 12.4063 182.499 13.1682V13.7073C182.069 13.4916 181.307 13.276 180.331 13.276C177.732 13.276 175.678 14.577 175.678 17.071C175.678 19.7807 177.839 21.1895 179.9 21.1895C180.984 21.1895 181.961 20.7582 182.499 20.212V20.8588H185.53V20.866Z" fill="#F8F7F7"/>
<path d="M202.734 20.8662V8.84152L199.596 10.4659V7.54059L203.272 5.59277H205.764V20.7584H202.734V20.8662Z" fill="#F8F7F7"/>
<path d="M73.1692 10.5737C73.1692 11.8746 72.4153 12.5215 71.0079 12.5215H67.7623V8.61871H70.9002C72.3075 8.6259 73.1692 9.27277 73.1692 10.5737ZM76.3071 10.4659C76.3071 7.21715 73.9232 5.59277 71.1084 5.59277H64.8398V20.7584H67.87V15.339H70.9002C73.9303 15.4468 76.3071 14.0381 76.3071 10.4659Z" fill="#F8F7F7"/>
<path d="M83.8898 12.9598C83.459 12.5285 82.8056 12.1979 82.1593 12.1979C80.9673 12.1979 80.2134 12.737 80.2134 14.692V20.866H77.1832V9.48821H80.2134V10.2501C80.7519 9.71102 81.5131 9.27258 82.5973 9.27258C83.5739 9.27258 84.3278 9.70383 84.6509 10.0345L83.8898 12.9598Z" fill="#F8F7F7"/>
<path d="M92.3339 15.231C92.3339 16.8554 91.6805 18.2641 90.1654 18.2641C88.7581 18.2641 88.1118 16.9632 88.1118 15.231C88.1118 13.4988 88.7581 12.1979 90.1654 12.1979C91.6805 12.0901 92.3339 13.4988 92.3339 15.231ZM95.4718 15.231C95.4718 11.7666 93.3033 9.27258 90.2731 9.27258C87.3507 9.27258 85.0745 11.7666 85.0745 15.231C85.0745 18.6954 87.243 21.1895 90.2731 21.1895C93.1956 21.0816 95.4718 18.7026 95.4718 15.231Z" fill="#F8F7F7"/>
<path d="M102.286 21.0809C99.7946 21.0809 97.5256 19.9956 96.3336 18.3713L98.5021 16.4234C99.5864 17.6166 100.886 18.1556 102.401 18.1556C104.239 18.1556 105 17.6166 105 16.5313C105 15.5538 104.462 15.1225 101.647 14.4756C98.8324 13.8288 96.8865 12.9591 96.8865 9.92594C96.8865 7.21626 99.2704 5.48407 102.301 5.48407C104.685 5.48407 106.415 6.35376 107.822 7.87032L105.654 10.0338C104.685 9.05626 103.6 8.51719 102.193 8.51719C100.57 8.51719 100.024 9.16407 100.024 9.92594C100.024 10.9034 100.678 11.2269 103.055 11.7659C105.438 12.305 108.138 13.1747 108.138 16.4234C108.347 19.1331 106.508 21.0809 102.286 21.0809Z" fill="#F8F7F7"/>
<path d="M112.03 8.51809C111.053 8.51809 110.299 7.75621 110.299 6.7859C110.299 5.8084 111.053 5.05371 112.03 5.05371C113.006 5.05371 113.76 5.8084 113.76 6.7859C113.76 7.75621 112.899 8.51809 112.03 8.51809ZM110.515 20.8662V9.4884H113.545V20.8662H110.515Z" fill="#F8F7F7"/>
<path d="M122.851 13.9301H118.952C119.06 12.737 119.713 11.8745 120.79 11.8745C122.097 11.8745 122.743 12.8448 122.851 13.9301ZM125.666 15.231C125.666 11.9823 123.935 9.27258 120.905 9.27258C117.983 9.27258 115.814 11.7666 115.814 15.231C115.814 18.8104 117.875 21.1895 121.228 21.1895C122.743 21.1895 124.366 20.5354 125.343 19.3495L123.181 17.6173C122.75 18.1563 122.097 18.3791 121.235 18.3791C120.151 18.3791 118.959 17.8401 118.851 16.2157H125.673C125.666 15.8851 125.666 15.6623 125.666 15.231Z" fill="#F8F7F7"/>
<path d="M134.763 15.3388C134.763 17.2866 134.11 18.2641 133.033 18.2641C132.164 18.2641 131.518 17.9407 130.979 17.2866V12.9525C131.41 12.4135 131.848 11.975 132.818 11.975C134.002 12.09 134.763 13.0675 134.763 15.3388ZM137.901 15.3388C137.901 11.1125 135.955 9.27253 133.464 9.27253C132.38 9.27253 131.626 9.70378 131.08 10.25V5.2619H128.05V20.866H131.08V20.2191C131.618 20.7582 132.487 21.0888 133.464 21.0888C136.279 21.0816 137.901 18.7025 137.901 15.3388Z" fill="#F8F7F7"/>
<path d="M146.346 13.9301H142.447C142.554 12.737 143.201 11.8745 144.285 11.8745C145.584 11.8745 146.238 12.8448 146.346 13.9301ZM149.16 15.231C149.16 11.9823 147.43 9.27258 144.4 9.27258C141.477 9.27258 139.316 11.7666 139.316 15.231C139.316 18.8104 141.37 21.1895 144.73 21.1895C146.245 21.1895 147.868 20.5354 148.844 19.3495L146.683 17.6173C146.252 18.1563 145.599 18.3791 144.737 18.3791C143.653 18.3791 142.461 17.8401 142.353 16.2157H149.175C149.16 15.8851 149.16 15.6623 149.16 15.231Z" fill="#F8F7F7"/>
<path d="M158.143 20.866V14.692C158.143 12.6363 157.49 12.0901 156.197 12.0901C155.005 12.0901 154.251 12.737 154.251 14.692V20.866H151.221V9.48821H154.251V10.2501C154.79 9.71102 155.766 9.27258 156.958 9.27258C159.881 9.27258 161.181 11.2204 161.181 14.4763V20.866H158.143Z" fill="#F8F7F7"/>
<path d="M168.426 21.0809C165.934 21.0809 163.665 19.9956 162.473 18.3713L164.634 16.4234C165.719 17.6166 167.018 18.1556 168.533 18.1556C170.372 18.1556 171.133 17.6166 171.133 16.5313C171.133 15.5538 170.594 15.1225 167.779 14.4756C164.965 13.8288 163.019 12.9591 163.019 9.92594C163.019 7.21626 165.395 5.48407 168.433 5.48407C170.817 5.48407 172.547 6.35376 173.955 7.87032L171.793 10.0338C170.817 9.05626 169.74 8.51719 168.332 8.51719C166.71 8.51719 166.164 9.16407 166.164 9.92594C166.164 10.9034 166.817 11.2269 169.194 11.7659C171.578 12.305 174.278 13.1747 174.278 16.4234C174.378 19.1331 172.648 21.0809 168.426 21.0809Z" fill="#F8F7F7"/>
<path d="M195.159 20.7575C195.159 20.7575 193.428 21.1888 192.236 21.1888C190.398 21.1888 189.206 19.78 189.206 17.7244V12.305H187.26V9.48752H189.206V5.69971H192.236V9.49471H194.943V12.3122H192.236V16.8619C192.236 18.1628 192.667 18.2706 193.32 18.2706C193.859 18.2706 194.728 18.1628 195.159 18.055V20.7575Z" fill="#F8F7F7"/>
<path d="M198.95 21.0818C197.866 21.0818 197.004 20.2122 197.004 19.134C197.004 18.0487 197.873 17.1862 198.95 17.1862C200.034 17.1862 200.896 18.0559 200.896 19.134C200.896 20.2193 200.034 21.0818 198.95 21.0818Z" fill="#F8F7F7"/>
<path d="M72.415 26.1769C73.3916 26.5003 74.1455 27.1544 74.7989 28.1247C75.3375 28.8866 75.6678 29.7491 75.7755 30.6188C75.9909 31.4884 75.9909 32.3509 75.9909 33.2206C75.9909 35.2763 75.6678 37.0156 74.9066 38.4244C73.9301 40.3722 72.3073 41.3497 70.2537 41.3497H64.1934V25.8463H70.2537C71.1153 25.8463 71.7616 25.9613 72.415 26.1769ZM67.0009 28.4481V38.525H69.708C71.1154 38.525 72.0919 37.7703 72.6304 36.2466C72.9536 35.3769 73.0613 34.4066 73.0613 33.3213C73.0613 31.6969 72.8458 30.5038 72.4078 29.7491C71.977 28.8794 71.1082 28.4481 69.7008 28.4481H67.0009Z" fill="#F8F7F7"/>
<path d="M78.2603 29.8578H80.9673V41.2356H78.2603V29.8578Z" fill="#F8F7F7"/>
<path d="M97.0944 28.3403C97.9312 28.3403 98.6095 27.6613 98.6095 26.8238C98.6095 25.9862 97.9312 25.3072 97.0944 25.3072C96.2577 25.3072 95.5793 25.9862 95.5793 26.8238C95.5793 27.6613 96.2577 28.3403 97.0944 28.3403Z" fill="#F8F7F7"/>
<path d="M88.8658 29.8573C89.5121 30.1807 90.0578 30.7269 90.4886 31.4816V29.8573H93.0879V40.6888C93.0879 42.2054 92.8725 43.2907 92.4345 44.0454C91.6806 45.3463 90.1583 45.9932 87.997 45.9932C87.8893 45.9932 87.6738 45.9932 87.5661 45.9932C87.5661 45.4541 87.5661 44.4766 87.5661 43.7148H88.2124C89.1889 43.7148 89.8352 43.3913 90.1583 42.6294C90.3737 42.1982 90.4814 41.4363 90.4814 40.351V39.5963C90.266 40.1354 89.9429 40.466 89.6126 40.6816C89.074 41.1129 88.4206 41.3285 87.559 41.3285C86.2593 41.3285 85.175 40.7894 84.4211 39.8119C83.6671 38.7266 83.2291 37.4257 83.2291 35.5857C83.2291 33.8535 83.66 32.4448 84.4211 31.3594C85.1822 30.1663 86.2593 29.6273 87.6667 29.6273C87.997 29.5338 88.5427 29.6416 88.8658 29.8573ZM89.8424 37.9863C90.2732 37.4473 90.4958 36.5776 90.4958 35.4923C90.4958 34.4069 90.2804 33.5444 89.8424 32.9982C89.4115 32.4591 88.8658 32.1285 88.2196 32.1285C87.243 32.1285 86.5968 32.6676 86.2737 33.6451C86.0582 34.1841 85.9505 34.8382 85.9505 35.5929C85.9505 36.2398 86.0582 36.8938 86.2737 37.3251C86.5968 38.3026 87.2502 38.7338 88.2196 38.7338C88.8658 38.741 89.4115 38.5254 89.8424 37.9863Z" fill="#F8F7F7"/>
<path d="M95.9028 29.8578H98.6099V41.2356H95.9028V29.8578Z" fill="#F8F7F7"/>
<path d="M79.4523 28.3403C80.2891 28.3403 80.9674 27.6613 80.9674 26.8238C80.9674 25.9862 80.2891 25.3072 79.4523 25.3072C78.6156 25.3072 77.9373 25.9862 77.9373 26.8238C77.9373 27.6613 78.6156 28.3403 79.4523 28.3403Z" fill="#F8F7F7"/>
<path d="M100.34 32.0282V29.8647H101.748V25.7463H104.455V29.8647H106.185V32.0282H104.455V38.0944C104.455 38.5257 104.455 38.8491 104.562 38.9641C104.67 39.0791 104.993 39.1797 105.539 39.1797H105.754H105.97V41.4582H104.67C103.37 41.4582 102.509 41.2425 102.071 40.6963C101.748 40.3728 101.64 39.8266 101.64 39.0719V32.0282H100.34Z" fill="#F8F7F7"/>
<path d="M112.138 34.2995C112.676 34.1917 113.006 34.1917 113.222 34.0839C113.653 33.8683 113.76 33.6526 113.76 33.2142C113.76 32.783 113.653 32.4595 113.33 32.2367C113.006 32.0211 112.576 32.0211 112.03 32.0211C111.376 32.0211 110.946 32.2367 110.623 32.5601C110.407 32.7758 110.299 33.207 110.192 33.6455H107.592C107.7 32.668 107.915 31.8055 108.353 31.1514C109.107 30.1739 110.299 29.6348 112.03 29.6348C113.222 29.6348 114.191 29.8504 115.06 30.3967C115.929 30.9358 116.36 31.8055 116.36 33.2142V38.4179V39.7189C116.36 40.1501 116.467 40.373 116.467 40.4808C116.575 40.5886 116.683 40.6964 116.898 40.8042V41.2355H113.976C113.868 41.0198 113.868 40.8042 113.76 40.5886C113.653 40.373 113.653 40.1573 113.653 39.9417C113.33 40.373 112.892 40.8114 112.353 41.1348C111.815 41.4583 111.053 41.6739 110.407 41.6739C109.431 41.6739 108.677 41.3505 108.023 40.8042C107.377 40.2651 107.054 39.3955 107.054 38.3101C107.054 36.9014 107.592 35.9239 108.569 35.277C109.107 34.9536 109.869 34.738 110.953 34.5151L112.138 34.2995ZM113.76 35.7083C113.545 35.8161 113.437 35.9239 113.222 36.0317C113.006 36.1395 112.791 36.1395 112.461 36.2473L111.807 36.3551C111.269 36.463 110.831 36.5708 110.615 36.7864C110.185 37.1098 109.962 37.4333 109.962 38.0873C109.962 38.6264 110.07 38.957 110.393 39.1726C110.608 39.3883 110.931 39.4961 111.369 39.4961C111.908 39.4961 112.454 39.2804 112.992 38.957C113.531 38.6336 113.746 37.8717 113.746 36.9014L113.76 35.7083Z" fill="#F8F7F7"/>
<path d="M121.774 41.2347H119.067V25.8463H121.774V41.2347Z" fill="#F8F7F7"/>
</svg>
