<svg width="188" height="48" viewBox="0 0 188 48" fill="none" xmlns="http://www.w3.org/2000/svg">
<g clip-path="url(#clip0_1284_6658)">
<path d="M21.9067 22.3515C21.6708 22.1484 21.456 21.8509 21.2735 21.4646C21.072 21.025 20.8283 20.369 20.5511 19.5154L14.4477 0.197205H10.805L3.3237 19.3444C2.89299 20.4633 2.44112 21.3292 1.9926 21.9153C1.59972 22.4259 1.16345 22.7123 0.662615 22.7911L0.158447 22.8699V24.7759H8.87066V22.8599L8.35538 22.79C7.7399 22.7045 7.29582 22.5425 7.03206 22.3093C6.80612 22.1084 6.68927 21.751 6.68927 21.2448C6.68927 20.9362 6.73379 20.5821 6.81837 20.1936C6.90629 19.7884 7.09994 19.1757 7.39599 18.3653L7.85453 17.0944H15.1667L15.6931 18.8715C15.8623 19.4044 15.9947 19.8906 16.0826 20.3168C16.1705 20.7242 16.2128 21.1038 16.2128 21.4491C16.2128 21.7488 16.1661 21.9886 16.0759 22.1406C15.9969 22.2794 15.8712 22.3882 15.6942 22.4692C15.5317 22.548 15.1934 22.6679 14.5345 22.7945L14.047 22.8877V24.7759H23.3602V22.9088L22.9006 22.7989C22.471 22.699 22.1371 22.548 21.9067 22.3515ZM14.4432 14.458H8.75268L11.8556 5.985L14.4432 14.458ZM47.2789 3.41523C46.2449 2.44394 44.9649 1.6991 43.4747 1.20291C42.0022 0.714486 40.107 0.466946 37.833 0.466946H29.5306V2.32295L29.9733 2.4395C30.6023 2.60601 30.8815 2.72034 31.0017 2.78583C31.1432 2.8602 31.2499 2.95457 31.3301 3.06777C31.3892 3.15215 31.4725 3.32198 31.526 3.65722C31.5828 3.98356 31.6073 4.53194 31.6073 5.289V19.9549C31.6073 20.7009 31.5828 21.2448 31.526 21.5778C31.4691 21.9452 31.3791 22.114 31.3335 22.1839C31.2589 22.2927 31.1508 22.3871 31.0017 22.4648C30.8761 22.5358 30.5899 22.6479 29.9823 22.8022L29.5306 22.9143V24.7748H36.4987C38.4786 24.7748 40.0969 24.676 41.3121 24.4773C42.5521 24.2752 43.6638 23.9333 44.621 23.4538C45.7785 22.8666 46.7647 22.1073 47.5592 21.196C48.4798 20.157 49.1864 18.856 49.6593 17.333C50.1256 15.8311 50.3606 14.0806 50.3606 12.1213C50.3606 10.1788 50.1056 8.47704 49.6072 7.06062C49.0972 5.61534 48.3126 4.38985 47.2789 3.41523ZM37.5704 22.1051C36.9884 22.1051 36.4964 22.0973 36.0991 22.0751V3.14104C36.6377 3.11552 37.1964 3.10441 37.7663 3.10441C39.3857 3.10441 40.7937 3.42078 41.9422 4.04796C43.0739 4.6607 43.9632 5.65865 44.59 7.00956C45.2398 8.40268 45.566 10.2243 45.566 12.4277C45.566 13.5333 45.4957 14.5668 45.3533 15.4959C45.2154 16.4106 44.9939 17.2487 44.6944 17.989C44.3972 18.7172 44.0167 19.3677 43.556 19.9205C43.1029 20.4645 42.5865 20.8918 42.0278 21.1949C41.4514 21.5024 40.7937 21.7344 40.0856 21.8787C39.3567 22.0285 38.5132 22.1051 37.5704 22.1051ZM78.1376 22.4115C77.8528 22.2217 77.5623 21.9364 77.2775 21.5601C76.9679 21.1549 76.5852 20.5522 76.1411 19.7596L74.5605 16.9811C73.9096 15.8211 73.3264 14.9786 72.7754 14.4136C72.4751 14.1006 72.1376 13.8252 71.7692 13.5899C73.1193 12.9883 74.1902 12.2124 74.9545 11.2788C75.9207 10.0911 76.4082 8.64133 76.4082 6.9674C76.4082 4.75951 75.6401 3.09554 74.1243 2.0199C72.6676 0.99089 70.4738 0.466946 67.6158 0.466946H58.3081V2.31962L58.7455 2.43728C59.361 2.60712 59.6415 2.72034 59.7606 2.78583C59.8996 2.8591 60.0054 2.95123 60.0857 3.07224C60.1467 3.15881 60.2303 3.33531 60.2858 3.67608C60.3381 4.00133 60.366 4.54194 60.366 5.289V19.9549C60.366 20.7531 60.3283 21.3447 60.2582 21.7166C60.2092 21.9974 60.1079 22.2039 59.9599 22.336C59.8841 22.4059 59.6092 22.5891 58.7623 22.8022L58.3081 22.9143V24.7748H66.9313V22.9254L66.4929 22.8044C65.8819 22.6368 65.6046 22.5236 65.4788 22.457C65.3409 22.3837 65.2374 22.2938 65.1605 22.1839C65.1161 22.1173 65.0283 21.9541 64.9646 21.5789C64.9058 21.2448 64.8768 20.682 64.8768 19.905V14.7211H66.2058C66.8646 14.7211 67.2029 14.7644 67.3687 14.7999C67.5834 14.8476 67.7816 14.9309 67.9729 15.0541C68.1032 15.1385 68.3247 15.3305 68.643 15.7623C68.927 16.1475 69.3008 16.7647 69.7539 17.5983L71.2998 20.4278C71.6893 21.1438 72.0856 21.8498 72.4883 22.5447C72.8947 23.2507 73.3332 23.9167 73.7905 24.5328L73.9698 24.7748H79.7514V22.871L79.2484 22.7911C78.7753 22.7145 78.4005 22.588 78.1376 22.4115ZM64.8768 3.15771C65.4265 3.13438 66.0834 3.12108 66.8424 3.12108C68.0531 3.12108 69.0171 3.28981 69.7015 3.62171C70.3637 3.93806 70.8422 4.38985 71.1672 4.99482C71.501 5.62202 71.6713 6.43235 71.6713 7.40585C71.6713 8.35162 71.5255 9.14752 71.2418 9.77691C70.9612 10.3874 70.5875 10.8681 70.1344 11.2011C69.6658 11.543 69.1505 11.7794 68.6053 11.9038C68.0188 12.0348 67.2285 12.1003 66.2612 12.1003H64.8768V3.15771ZM85.6078 2.32073L86.0451 2.43839C86.6618 2.60712 86.9379 2.72034 87.0625 2.78583C87.1982 2.8591 87.3051 2.95235 87.3865 3.07224C87.443 3.15993 87.53 3.33641 87.5854 3.67721C87.6378 4.00245 87.6668 4.54194 87.6668 5.29012V19.9561C87.6668 20.7531 87.6291 21.3458 87.5612 21.7177C87.51 21.9986 87.4064 22.2039 87.2595 22.336C87.1827 22.407 86.91 22.5902 86.0598 22.8033L85.6078 22.9154V24.7759H94.2333V22.9154L93.7824 22.8033C93.1804 22.6512 92.899 22.5303 92.7642 22.4548C92.615 22.3704 92.5092 22.2727 92.4346 22.1562C92.3803 22.0607 92.3012 21.8753 92.2477 21.5346C92.1999 21.2137 92.1743 20.6831 92.1743 19.9561V5.29012C92.1743 4.54194 92.2033 3.99468 92.2624 3.65388C92.3291 3.27982 92.418 3.11662 92.4647 3.05003C92.5461 2.9357 92.6606 2.84133 92.8109 2.75919C92.9311 2.69259 93.2026 2.5827 93.7759 2.44505L94.2333 2.33405V0.468055H85.6078V2.32073ZM121.945 22.3515C121.707 22.1484 121.494 21.8509 121.311 21.4624C121.109 21.0339 120.87 20.379 120.592 19.5154L114.484 0.197205H110.843L103.363 19.3444C102.929 20.4633 102.478 21.3292 102.026 21.9153C101.633 22.4259 101.201 22.7123 100.702 22.7911L100.193 22.8699V24.7759H108.907V22.8599L108.391 22.79C107.779 22.7045 107.332 22.5425 107.071 22.3093C106.841 22.1084 106.726 21.751 106.726 21.2448C106.726 20.9362 106.767 20.5821 106.852 20.1936C106.944 19.7884 107.136 19.1757 107.432 18.3653L107.888 17.0944H115.203L115.729 18.8715C115.898 19.4066 116.031 19.8939 116.119 20.3168C116.205 20.7253 116.249 21.1061 116.249 21.4491C116.249 21.7488 116.202 21.9886 116.112 22.1406C116.034 22.2794 115.908 22.3882 115.733 22.4692C115.569 22.548 115.228 22.6679 114.569 22.7945L114.084 22.8877V24.7759H123.395V22.9088L122.934 22.7989C122.509 22.699 122.173 22.548 121.945 22.3515ZM114.482 14.458H108.789L111.894 5.985L114.482 14.458ZM126.512 7.53017H129.329L129.438 7.08282C129.654 6.21256 129.882 5.48658 130.123 4.92156C130.345 4.39319 130.59 3.99134 130.846 3.72049C131.073 3.48071 131.315 3.32198 131.563 3.25093C131.865 3.16546 132.264 3.12108 132.756 3.12108H134.369V19.905C134.369 20.5477 134.341 21.0306 134.282 21.3458C134.215 21.7077 134.134 21.9053 134.078 22.0085C134.004 22.1406 133.919 22.2439 133.812 22.3227C133.699 22.4126 133.537 22.4925 133.331 22.5602C133.077 22.6446 132.79 22.7223 132.461 22.7978L131.997 22.9021V24.7748H141.236V22.8977L140.765 22.7967C140.113 22.6535 139.793 22.5369 139.636 22.4626C139.464 22.3782 139.328 22.265 139.23 22.1207C139.117 21.9541 139.028 21.7099 138.965 21.3902C138.9 21.0361 138.862 20.5355 138.862 19.905V3.12108H140.494C141.194 3.12108 141.55 3.201 141.719 3.26761C141.957 3.35751 142.186 3.52069 142.407 3.74935C142.638 3.99134 142.871 4.36877 143.096 4.87384C143.334 5.40888 143.583 6.15594 143.831 7.09281L143.948 7.53017H146.739V0.466946H126.512V7.53017ZM153.756 2.32073L154.195 2.43839C154.809 2.60712 155.086 2.72034 155.21 2.78583C155.347 2.8591 155.454 2.95235 155.535 3.07224C155.594 3.15993 155.676 3.33641 155.732 3.67721C155.786 4.00024 155.816 4.54081 155.816 5.29012V19.9561C155.816 20.7553 155.777 21.3492 155.707 21.7166C155.657 21.9986 155.553 22.2039 155.408 22.336C155.332 22.407 155.059 22.5902 154.207 22.8033L153.756 22.9154V24.7759H162.38V22.9154L161.93 22.8033C161.332 22.6512 161.047 22.5303 160.912 22.4548C160.764 22.3715 160.656 22.2727 160.585 22.1562C160.529 22.0607 160.449 21.8753 160.396 21.5346C160.348 21.2115 160.325 20.6809 160.325 19.9561V5.29012C160.325 4.54194 160.354 3.99468 160.413 3.655C160.477 3.27982 160.564 3.11662 160.609 3.05335C160.693 2.9357 160.807 2.84133 160.959 2.75919C161.08 2.69259 161.351 2.5827 161.926 2.44505L162.38 2.33405V0.468055H153.756V2.32073ZM177.925 3.87367C178.762 3.18544 179.693 2.85023 180.762 2.85023C181.48 2.85023 182.097 2.959 182.59 3.17436C183.065 3.3786 183.489 3.73492 183.857 4.23002C184.249 4.75283 184.58 5.47993 184.841 6.3946L184.962 6.81975H187.766V1.0919L187.315 0.979788C186.133 0.680075 185.066 0.472496 184.145 0.362601C183.217 0.253817 182.2 0.197205 181.112 0.197205C178.868 0.197205 176.903 0.732249 175.274 1.78679C173.645 2.84355 172.398 4.34988 171.564 6.26693C170.744 8.15182 170.328 10.3664 170.328 12.8517C170.328 16.8168 171.14 19.8606 172.736 21.9009C174.374 23.99 176.81 25.0478 179.971 25.0478C181.368 25.0478 182.677 24.9768 183.851 24.8292C185.034 24.6871 186.198 24.4673 187.315 24.1787L187.766 24.0644V18.1867H184.983L184.85 18.5885C184.495 19.6475 184.12 20.4545 183.742 20.9806C183.383 21.4735 182.959 21.822 182.449 22.0463C181.922 22.2749 181.211 22.3937 180.337 22.3937C179.225 22.3937 178.314 22.054 177.554 21.3591C176.77 20.6376 176.167 19.5376 175.753 18.0812C175.322 16.5749 175.105 14.7189 175.105 12.562C175.105 10.4307 175.365 8.59249 175.88 7.10836C176.383 5.6653 177.071 4.57413 177.925 3.87367Z" fill="#F8F7F7"/>
<path d="M5.17189 44.6664C4.503 44.6664 3.89422 44.5586 3.34218 44.3444C2.79573 44.1314 2.3205 43.7973 1.92874 43.3454C1.53253 42.8915 1.23092 42.313 1.01612 41.607C0.800204 40.9033 0.693359 40.0598 0.693359 39.0785C0.693359 37.8683 0.88479 36.8306 1.26319 35.9624C1.64049 35.0956 2.18361 34.4351 2.89034 33.9812C3.59818 33.5304 4.41508 33.3027 5.34996 33.3027C6.3416 33.3027 7.17744 33.5138 7.85413 33.9422C8.53301 34.3663 9.04387 34.9934 9.38554 35.8192C9.72946 36.6462 9.90195 37.6553 9.90195 38.8432C9.90195 40.1109 9.70719 41.1809 9.31543 42.0556C8.92477 42.928 8.37386 43.5829 7.66157 44.016C6.95373 44.45 6.12014 44.6664 5.17189 44.6664ZM2.41844 38.8497C2.41844 40.5159 2.66441 41.7813 3.16747 42.6507C3.66828 43.5175 4.39729 43.9503 5.35665 43.9503C5.96433 43.9503 6.48074 43.7617 6.9081 43.3855C7.32548 43.008 7.6471 42.4564 7.85857 41.7291C8.07114 41.0021 8.17575 40.1552 8.17575 39.184C8.17575 38.0017 8.05333 37.0203 7.80516 36.2434C7.55696 35.4653 7.21752 34.8991 6.78903 34.5471C6.35719 34.1931 5.85747 34.0166 5.28987 34.0166C4.7868 34.0166 4.35721 34.1319 3.99774 34.3596C3.63713 34.5861 3.33664 34.9114 3.10181 35.3308C2.8614 35.7527 2.68889 36.2599 2.58316 36.8561C2.47409 37.4532 2.41844 38.1182 2.41844 38.8497Z" fill="#F8F7F7"/>
<path d="M5.17192 44.8618C4.48189 44.8618 3.84084 44.7498 3.26654 44.5267C2.68558 44.2968 2.18141 43.9428 1.77407 43.4687C1.36561 43.0002 1.0462 42.3919 0.82138 41.6626C0.601014 40.9401 0.491943 40.073 0.491943 39.0785C0.491943 37.8496 0.688938 36.7762 1.07625 35.8861C1.47023 34.9878 2.04007 34.2942 2.78018 33.8201C3.51583 33.3483 4.38061 33.1074 5.34999 33.1074C6.37948 33.1074 7.25982 33.3317 7.96434 33.7791C8.67441 34.2255 9.21752 34.8859 9.57366 35.7483C9.92424 36.5943 10.1034 37.6354 10.1034 38.843C10.1034 40.132 9.90198 41.2396 9.50355 42.1345C9.09397 43.0381 8.51303 43.7283 7.77068 44.1814C7.03169 44.6319 6.15577 44.8618 5.17192 44.8618ZM5.34999 33.4959C4.45963 33.4959 3.67166 33.7137 3.00055 34.1432C2.33389 34.5738 1.80969 35.2121 1.44797 36.0391C1.07847 36.8784 0.894835 37.9029 0.894835 39.0785C0.894835 40.0343 1.00056 40.8657 1.2098 41.5537C1.41458 42.2288 1.70952 42.7905 2.08347 43.22C2.45075 43.643 2.89816 43.9616 3.41789 44.1648C3.941 44.3678 4.53421 44.4711 5.17192 44.4711C6.07787 44.4711 6.88143 44.2625 7.55699 43.8504C8.2292 43.4409 8.75788 42.8104 9.1307 41.9768C9.51022 41.1355 9.70278 40.0775 9.70278 38.843C9.70278 37.6843 9.5347 36.6931 9.20193 35.8925C8.87251 35.1066 8.38391 34.505 7.74285 34.1064C7.10514 33.7014 6.29936 33.4959 5.34999 33.4959ZM5.35669 44.1457C4.32274 44.1457 3.52585 43.6742 2.99053 42.745C2.47857 41.8524 2.21703 40.5438 2.21703 38.8497C2.21703 38.1039 2.27379 37.4224 2.38286 36.8228C2.49304 36.2089 2.67779 35.6761 2.92375 35.2377C3.17417 34.7925 3.50027 34.4419 3.88758 34.1977C4.27712 33.9478 4.7501 33.8224 5.2899 33.8224C5.9076 33.8224 6.45294 34.0166 6.91593 34.3975C7.37335 34.7714 7.7384 35.3744 7.99772 36.1856C8.25037 36.9761 8.37724 37.9852 8.37724 39.1841C8.37724 40.1696 8.26706 41.0443 8.05114 41.7848C7.83299 42.5384 7.49133 43.1257 7.0428 43.5276C6.57981 43.9372 6.01331 44.1457 5.35669 44.1457ZM5.2899 34.212C4.83135 34.212 4.4318 34.3164 4.10682 34.5238C3.7785 34.7316 3.49692 35.0356 3.27768 35.4241C3.05287 35.8249 2.8837 36.3189 2.78129 36.8904C2.67111 37.469 2.62103 38.1272 2.62103 38.8497C2.62103 40.4761 2.86144 41.7227 3.34221 42.5542C3.80856 43.3609 4.4663 43.755 5.35669 43.755C5.91762 43.755 6.37948 43.5874 6.77124 43.241C7.16188 42.8893 7.46462 42.3619 7.66382 41.677C7.87195 40.9721 7.97546 40.1354 7.97546 39.1841C7.97546 38.0228 7.85416 37.0549 7.61485 36.3012C7.3767 35.5608 7.05282 35.0201 6.65662 34.697C6.26818 34.3762 5.80853 34.212 5.2899 34.212ZM23.0794 42.0057C23.1951 42.484 23.3443 42.8615 23.5323 43.138C23.7238 43.4142 23.9675 43.6186 24.2691 43.7508C24.5741 43.885 24.958 43.9515 25.4311 43.9515C26.0866 43.9515 26.5874 43.7862 26.938 43.4555C27.2853 43.1257 27.46 42.6406 27.46 42.0057C27.46 41.6006 27.3854 41.2587 27.243 40.9811C27.0949 40.7046 26.8568 40.445 26.5284 40.2019C26.199 39.9577 25.6982 39.6714 25.0226 39.346C24.3715 39.0319 23.8529 38.7243 23.4745 38.4214C23.0961 38.1238 22.8123 37.7963 22.6264 37.4434C22.4372 37.0903 22.3459 36.7063 22.3459 36.2878C22.3459 35.6806 22.4929 35.1523 22.7833 34.706C23.0761 34.2586 23.5068 33.9122 24.0744 33.668C24.6397 33.426 25.2875 33.3028 26.0176 33.3028C26.4438 33.3028 26.8568 33.323 27.263 33.3674C27.6692 33.4117 28.1745 33.5083 28.7799 33.6593V35.8572H27.9541C27.825 35.3797 27.6636 35.0081 27.4689 34.7425C27.2741 34.4772 27.0437 34.292 26.7833 34.1842C26.5173 34.0789 26.1779 34.0278 25.7605 34.0278C25.3966 34.0278 25.0716 34.091 24.7833 34.2221C24.494 34.3518 24.2691 34.5483 24.1011 34.8135C23.9363 35.0746 23.8496 35.3887 23.8496 35.7494C23.8496 36.1368 23.923 36.4621 24.0666 36.7274C24.2068 36.9926 24.4305 37.2402 24.7321 37.4678C25.0326 37.6952 25.4767 37.9506 26.0699 38.2336C26.7866 38.5789 27.3375 38.9031 27.7304 39.2006C28.1255 39.497 28.4337 39.8401 28.653 40.2207C28.8733 40.6036 28.9837 41.051 28.9837 41.5594C28.9837 42.1278 28.8925 42.6095 28.7076 43.0013C28.5272 43.3965 28.2657 43.7163 27.9419 43.965C27.6147 44.2114 27.2229 44.3877 26.7666 44.5022C26.3114 44.612 25.8139 44.6664 25.2753 44.6664C24.3993 44.6664 23.3854 44.5233 22.2447 44.2347V42.0057H23.0794Z" fill="#F8F7F7"/>
<path d="M25.2754 44.8618C24.385 44.8618 23.3488 44.7142 22.1925 44.4222L22.0433 44.3846V41.8125H23.2431L23.2776 41.9636C23.3833 42.4175 23.528 42.7759 23.7016 43.0314C23.8708 43.2789 24.0856 43.4566 24.3527 43.5742C24.6243 43.6952 24.9904 43.755 25.4323 43.755C26.0288 43.755 26.4896 43.6074 26.7957 43.3154C27.1028 43.0246 27.2575 42.5839 27.2575 42.0057C27.2575 41.6349 27.1919 41.3196 27.0639 41.0687C26.9303 40.8203 26.7077 40.5791 26.4061 40.3551C26.0867 40.1185 25.5903 39.8367 24.9337 39.5215C24.2692 39.1984 23.7328 38.8809 23.3488 38.5724C22.9493 38.2569 22.6477 37.9063 22.4451 37.531C22.2448 37.1571 22.1457 36.7375 22.1457 36.2867C22.1457 35.6438 22.3016 35.0779 22.6132 34.6027C22.9281 34.121 23.3911 33.748 23.991 33.4895C24.5842 33.2363 25.2642 33.1074 26.0177 33.1074C26.4518 33.1074 26.8624 33.1307 27.2854 33.1754C27.7016 33.2197 28.2101 33.3174 28.8335 33.4715L28.9838 33.5094V36.0514H27.7995L27.7606 35.9071C27.6382 35.4541 27.4835 35.1001 27.3065 34.8537C27.134 34.6204 26.9303 34.4573 26.7033 34.3652C26.4662 34.2687 26.1468 34.2221 25.7606 34.2221C25.4289 34.2221 25.1284 34.2819 24.8691 34.3975C24.6132 34.5129 24.4228 34.6805 24.2748 34.9135C24.1268 35.1445 24.0533 35.4263 24.0533 35.7494C24.0533 36.1014 24.1168 36.4001 24.2448 36.6375C24.3716 36.875 24.5775 37.1015 24.8569 37.3135C25.1451 37.531 25.5825 37.7831 26.1579 38.0573C26.8847 38.4102 27.4567 38.7422 27.8552 39.0474C28.2715 39.3581 28.5976 39.7233 28.8279 40.1252C29.0671 40.537 29.1864 41.021 29.1864 41.5582C29.1864 42.1511 29.0851 42.6628 28.8937 43.0836C28.6987 43.4987 28.4195 43.8485 28.0667 44.1149C27.7183 44.379 27.2998 44.571 26.819 44.6875C26.3471 44.8029 25.8285 44.8618 25.2754 44.8618ZM22.4462 44.0837C24.1824 44.5067 25.5903 44.5831 26.7189 44.3114C27.1485 44.2081 27.5157 44.0394 27.8174 43.8106C28.1201 43.5807 28.3559 43.2823 28.5253 42.9236C28.6967 42.553 28.78 42.0932 28.78 41.5582C28.78 41.0878 28.6798 40.6704 28.4763 40.3172C28.2726 39.9577 27.9787 39.6357 27.6081 39.3528C27.2264 39.0662 26.6799 38.7453 25.9799 38.4068C25.3811 38.1205 24.9181 37.8552 24.6054 37.6211C24.2804 37.3758 24.04 37.1049 23.8853 36.8152C23.7295 36.523 23.6493 36.1645 23.6493 35.7494C23.6493 35.3542 23.7439 35.0013 23.9309 34.7094C24.1168 34.4141 24.3772 34.1909 24.6989 34.0455C25.0127 33.9046 25.3699 33.8314 25.7606 33.8314C26.2002 33.8314 26.5708 33.89 26.8569 34.0057C27.1574 34.1255 27.4178 34.3352 27.6326 34.6305C27.8207 34.8859 27.9799 35.2321 28.109 35.6618H28.5819V33.8134C28.0511 33.6848 27.6014 33.5992 27.2397 33.5616C26.8368 33.5172 26.4373 33.4959 26.0177 33.4959C25.3199 33.4959 24.6955 33.6149 24.1546 33.8457C23.6293 34.0722 23.2253 34.3975 22.9537 34.8093C22.6844 35.2211 22.5464 35.7182 22.5464 36.2867C22.5464 36.6751 22.6354 37.0339 22.8046 37.3525C22.9771 37.6798 23.2475 37.9916 23.6048 38.2715C23.9676 38.5612 24.4751 38.8655 25.1106 39.1728C25.794 39.5004 26.3115 39.7954 26.6532 40.0452C27.0027 40.3052 27.2609 40.5892 27.4245 40.8935C27.5792 41.1975 27.6616 41.5728 27.6616 42.0057C27.6616 42.6939 27.4645 43.2278 27.0784 43.593C26.6899 43.9605 26.139 44.1457 25.4323 44.1457C24.9281 44.1457 24.5107 44.0725 24.1858 43.9293C23.8508 43.7817 23.577 43.5521 23.3655 43.2455C23.183 42.9769 23.0361 42.6361 22.9214 42.201H22.4462V44.0837ZM43.7848 42.5019C43.7848 42.8671 43.7972 43.1302 43.8228 43.3011C43.8484 43.4687 43.8918 43.5986 43.9486 43.6997C44.0052 43.7974 44.0944 43.8771 44.2078 43.9428C44.3201 44.0071 44.5095 44.0725 44.7676 44.137V44.5365H41.2319V44.137C41.5789 44.0514 41.8128 43.9549 41.9273 43.8485C42.0441 43.7441 42.121 43.593 42.159 43.3988C42.1944 43.2034 42.2124 42.9048 42.2124 42.5019V35.4664C42.2124 35.0923 42.2001 34.8191 42.1733 34.6493C42.1432 34.4772 42.0954 34.3442 42.0332 34.2499C41.9687 34.1553 41.8829 34.0789 41.7759 34.0222C41.6726 33.9655 41.4889 33.9012 41.2319 33.8314V33.4328H44.7676V33.8314C44.5194 33.8911 44.3404 33.9501 44.2346 34.0099C44.1265 34.0688 44.0364 34.1455 43.9742 34.2342C43.9073 34.3231 43.8617 34.4573 43.8296 34.6372C43.7995 34.8158 43.7848 35.0923 43.7848 35.4664V42.5019Z" fill="#F8F7F7"/>
<path d="M44.9682 44.7306H41.0283V43.9859L41.1809 43.948C41.5903 43.8481 41.7384 43.7538 41.7885 43.7061C41.8752 43.6306 41.9309 43.5163 41.9599 43.3619C41.9931 43.1789 42.0111 42.8791 42.0111 42.5016V35.4661C42.0111 35.1065 41.9976 34.8412 41.9731 34.677C41.9486 34.5392 41.9109 34.4283 41.8653 34.3573C41.8163 34.2885 41.7527 34.233 41.6793 34.1942C41.616 34.1597 41.4789 34.103 41.1752 34.0177L41.0283 33.9775V33.2373H44.9682V33.982L44.8134 34.0199C44.5263 34.0898 44.3926 34.1465 44.3338 34.1774C44.2491 34.2262 44.1858 34.2796 44.1435 34.3419C44.1067 34.3916 44.0611 34.4817 44.0276 34.6692C44 34.8379 43.9854 35.1065 43.9854 35.4661V42.5016C43.9854 42.8581 43.9978 43.1166 44.0245 43.271C44.0434 43.4164 44.0799 43.5273 44.1233 43.5983C44.1613 43.6707 44.2257 43.7283 44.3082 43.7737C44.4061 43.8293 44.5764 43.8883 44.8167 43.948L44.9682 43.989V44.7306ZM41.4322 44.341H44.5651V44.2854C44.3583 44.2279 44.2069 44.1678 44.1056 44.108C43.9598 44.028 43.8475 43.9214 43.774 43.7937C43.7028 43.6783 43.6527 43.5242 43.6237 43.3288C43.5959 43.1534 43.5838 42.8847 43.5838 42.5016V35.4661C43.5838 35.0866 43.5981 34.798 43.6327 34.606C43.6705 34.3916 43.7284 34.233 43.8106 34.121C43.8852 34.0132 43.9933 33.9177 44.1345 33.8411C44.2325 33.7855 44.3715 33.7344 44.5651 33.6814V33.628H41.4322V33.6856C41.6326 33.7445 41.7772 33.8001 41.8752 33.8523C42.0055 33.9233 42.1147 34.021 42.2014 34.1431C42.2804 34.2619 42.3404 34.4205 42.3682 34.6181C42.3984 34.8036 42.4116 35.0866 42.4116 35.4661V42.5016C42.4116 42.9069 42.3939 43.2199 42.3573 43.4296C42.3114 43.6685 42.2115 43.8571 42.0657 43.9901C41.941 44.1024 41.7339 44.199 41.4322 44.2866V44.341ZM65.2105 44.4965L64.5584 44.6664L63.9486 44.0337C63.5847 44.2478 63.2061 44.4109 62.8087 44.5108C62.4094 44.6141 61.9563 44.6664 61.4421 44.6664C60.031 44.6664 58.9691 44.1956 58.2545 43.2556C57.5402 42.313 57.1828 40.9142 57.1828 39.0616C57.1828 37.9062 57.3798 36.8937 57.7682 36.0202C58.1577 35.1455 58.7175 34.4749 59.452 34.0053C60.1801 33.5368 61.0405 33.3027 62.032 33.3027C62.5495 33.3027 63.0494 33.3305 63.5289 33.3883C64.0063 33.4447 64.5407 33.5424 65.1272 33.6845V35.9225H64.3012C64.1489 35.4341 63.9719 35.0509 63.7648 34.7781C63.5568 34.505 63.3097 34.3096 63.0215 34.1942C62.733 34.0752 62.3725 34.0177 61.9284 34.0177C61.3208 34.0177 60.79 34.2085 60.3315 34.5861C59.8728 34.9667 59.5168 35.5261 59.264 36.2689C59.0093 37.0068 58.8813 37.9017 58.8813 38.9485C58.8813 40.0106 58.9868 40.9176 59.2041 41.6724C59.4188 42.4272 59.7405 42.9956 60.161 43.3765C60.5885 43.7594 61.1094 43.9514 61.7291 43.9514C62.3883 43.9514 62.8746 43.8139 63.194 43.5306C63.5135 43.2522 63.6691 42.8224 63.6691 42.2431V41.7535C63.6691 41.2673 63.6446 40.9142 63.5923 40.6978C63.5391 40.4814 63.4454 40.3127 63.3097 40.1917C63.1783 40.0741 62.9579 39.9764 62.6509 39.8986V39.5H66.0309V39.8986C65.8317 39.9652 65.6802 40.0384 65.5812 40.1229C65.4799 40.2071 65.4019 40.3127 65.3476 40.437C65.2941 40.5625 65.2629 40.7158 65.2406 40.8954C65.2207 41.0787 65.2105 41.335 65.2105 41.6724V44.4965Z" fill="#F8F7F7"/>
<path d="M64.4927 44.8851L63.9104 44.2791C63.5732 44.4666 63.2194 44.6064 62.862 44.6987C62.4458 44.8062 61.9673 44.8618 61.4419 44.8618C59.9717 44.8618 58.8431 44.3591 58.0908 43.3699C57.3551 42.3998 56.98 40.9499 56.98 39.0608C56.98 37.8897 57.1837 36.8396 57.5823 35.9403C57.9872 35.0367 58.5771 34.3296 59.3396 33.8423C60.1008 33.355 61.0034 33.1074 62.0307 33.1074C62.5527 33.1074 63.0658 33.1363 63.5532 33.193C64.0373 33.2517 64.5827 33.3528 65.1749 33.4948L65.3282 33.5327V36.1179H64.1487L64.1051 35.9793C63.9616 35.5119 63.7913 35.1478 63.6011 34.8924C63.4153 34.6448 63.1992 34.4761 62.9411 34.372C62.6808 34.2653 62.3402 34.212 61.9271 34.212C61.3662 34.212 60.8844 34.3829 60.4614 34.7338C60.033 35.0889 59.6936 35.6262 59.4563 36.3276C59.207 37.0415 59.0826 37.924 59.0826 38.9474C59.0826 39.993 59.1881 40.8924 59.3964 41.6217C59.6021 42.3352 59.9038 42.8781 60.3001 43.2346C60.6896 43.5841 61.1571 43.7539 61.729 43.7539C62.3324 43.7539 62.7787 43.6318 63.059 43.3864C63.3317 43.1501 63.4685 42.7627 63.4685 42.242V41.7536C63.4685 41.2786 63.444 40.939 63.3931 40.7414C63.354 40.5648 63.2771 40.4262 63.1736 40.3349C63.1001 40.2684 62.94 40.1718 62.5983 40.0876L62.4469 40.0497V39.307H66.2311V40.0408L66.094 40.0843C65.8759 40.1542 65.7681 40.2229 65.7147 40.2695C65.6333 40.3349 65.5742 40.4161 65.532 40.5104C65.4909 40.6137 65.4586 40.7501 65.4386 40.9179C65.4208 41.0866 65.413 41.3351 65.413 41.6716V44.6454L64.4927 44.8851ZM62.0307 33.4948C61.0836 33.4948 60.2545 33.7213 59.5633 34.1688C58.8665 34.6139 58.3247 35.2621 57.9507 36.0946C57.5778 36.9438 57.383 37.9417 57.383 39.0608C57.383 40.8635 57.7325 42.2375 58.4159 43.1403C59.097 44.036 60.0865 44.4711 61.4419 44.4711C61.9338 44.4711 62.3768 44.4222 62.7573 44.3245C63.1268 44.2269 63.493 44.0736 63.8403 43.8662L63.9807 43.7817L64.6216 44.4466L65.008 44.3478V41.6716C65.008 41.323 65.0178 41.0622 65.0389 40.8756C65.0623 40.6692 65.1025 40.5028 65.1614 40.3638C65.2261 40.2097 65.3229 40.0798 65.4476 39.9753C65.541 39.8953 65.6679 39.8255 65.8292 39.7634V39.6946H62.8522V39.7511C63.117 39.8288 63.3118 39.9288 63.4474 40.0497C63.6123 40.194 63.728 40.3984 63.7879 40.6524C63.8437 40.8812 63.8704 41.2408 63.8704 41.7536V42.242C63.8704 42.8781 63.6869 43.3601 63.3295 43.6742C62.9746 43.9849 62.4348 44.1457 61.729 44.1457C61.0591 44.1457 60.4847 43.9338 60.0229 43.5198C59.5743 43.1113 59.2315 42.5073 59.0103 41.7247C58.7907 40.9634 58.6807 40.0287 58.6807 38.9474C58.6807 37.8819 58.8121 36.9595 59.0713 36.2055C59.3339 35.4342 59.7147 34.8402 60.1988 34.4396C60.693 34.0301 61.2727 33.8212 61.9271 33.8212C62.4002 33.8212 62.7798 33.8847 63.1001 34.0121C63.4195 34.1421 63.6968 34.363 63.9273 34.6628C64.1276 34.9303 64.299 35.2798 64.4468 35.7272H64.9266V33.8378C64.408 33.7179 63.9318 33.6315 63.5031 33.5793C63.0312 33.5248 62.535 33.4948 62.0307 33.4948ZM86.4825 40.6982C86.4825 41.2885 86.4268 41.7979 86.3153 42.2255C86.2109 42.6339 86.0516 42.9937 85.8391 43.3078C85.6432 43.5897 85.4006 43.8305 85.1113 44.0281C84.8195 44.2257 84.4691 44.3824 84.0528 44.4966C83.6431 44.6075 83.1567 44.6664 82.5992 44.6664C81.926 44.6664 81.3448 44.5932 80.8619 44.4466C80.3823 44.3001 79.9816 44.0593 79.6678 43.7272C79.3461 43.3954 79.1212 43.0002 78.9844 42.5463C78.844 42.0932 78.7705 41.5184 78.7705 40.818V35.4664C78.7705 35.0434 78.7584 34.7571 78.7294 34.6095C78.705 34.4596 78.6627 34.3408 78.6104 34.253C78.5569 34.1688 78.4801 34.0932 78.3788 34.0301C78.28 33.9689 78.0928 33.9012 77.8179 33.8314V33.4328H81.335V33.8314C81.0232 33.908 80.8039 33.9922 80.6826 34.0865C80.5579 34.1831 80.4769 34.3243 80.4313 34.514C80.3865 34.7027 80.3643 35.0201 80.3643 35.4664V41.2264C80.3643 41.7502 80.4212 42.1943 80.5368 42.553C80.6494 42.9092 80.8084 43.188 81.0189 43.3853C81.2247 43.5841 81.4684 43.7272 81.7546 43.8173C82.0394 43.906 82.3943 43.9515 82.8151 43.9515C83.208 43.9515 83.5485 43.885 83.8457 43.7508C84.1429 43.6186 84.3877 43.4165 84.5881 43.1445C84.7851 42.8747 84.9185 42.5396 84.9909 42.1443C85.0654 41.7471 85.1034 41.2163 85.1034 40.5494V35.4664C85.1034 34.9946 85.0778 34.6715 85.03 34.4983C84.981 34.3243 84.903 34.1921 84.7972 34.1C84.6872 34.0068 84.4634 33.9189 84.1229 33.8314V33.4328H87.4638V33.8314C87.1413 33.9122 86.9176 34.0023 86.7974 34.1C86.6761 34.1977 86.5981 34.3386 86.5537 34.5238C86.5058 34.706 86.4825 35.0201 86.4825 35.4664V40.6982Z" fill="#F8F7F7"/>
<path d="M82.5994 44.8617C81.9062 44.8617 81.2995 44.7851 80.8033 44.6318C80.2891 44.4766 79.8537 44.2156 79.5177 43.8593C79.1816 43.504 78.9368 43.0835 78.7888 42.6026C78.6452 42.1311 78.5695 41.5326 78.5695 40.8177V35.4661C78.5695 35.0509 78.5583 34.7747 78.5326 34.6425C78.5093 34.5204 78.4783 34.4205 78.4381 34.3539C78.4015 34.2939 78.3446 34.2408 78.2678 34.1942C78.2245 34.1653 78.0953 34.103 77.7671 34.0165L77.6157 33.9809V33.2373H81.5378V33.982L81.3842 34.0188C81.0335 34.1064 80.8787 34.1852 80.8098 34.2374C80.7219 34.3062 80.6628 34.4106 80.6296 34.5583C80.5871 34.7315 80.5649 35.0355 80.5649 35.4661V41.2264C80.5649 41.7325 80.6218 42.1574 80.7264 42.494C80.8309 42.8213 80.9766 43.0734 81.1593 43.2477C81.342 43.4231 81.5654 43.5517 81.8159 43.6328C82.0819 43.7139 82.417 43.7549 82.8153 43.7549C83.1783 43.7549 83.4955 43.6951 83.7615 43.5761C84.0274 43.454 84.2455 43.2788 84.4214 43.0335C84.6027 42.7882 84.7251 42.4794 84.7963 42.1097C84.8655 41.7291 84.8999 41.2042 84.8999 40.549V35.4661C84.8999 34.9024 84.8678 34.656 84.8366 34.5471C84.7997 34.414 84.742 34.313 84.6629 34.2442C84.6184 34.2052 84.4772 34.124 84.0696 34.0165L83.9216 33.9809V33.2373H87.6644V33.9809L87.5153 34.0188C87.1303 34.1165 86.9822 34.204 86.9276 34.2461C86.8421 34.3163 86.7841 34.4216 86.7498 34.5659C86.7084 34.7346 86.6839 35.0355 86.6839 35.4661V40.6978C86.6839 41.3038 86.6262 41.8324 86.5125 42.2742C86.4058 42.6958 86.2356 43.0812 86.0085 43.413C85.7991 43.7173 85.5387 43.9758 85.2294 44.1878C84.9179 44.3977 84.5427 44.5642 84.1107 44.684C83.6813 44.7994 83.1738 44.8617 82.5994 44.8617ZM78.0185 33.6845C78.2354 33.7434 78.3891 33.8035 78.4882 33.8666C78.6174 33.9478 78.7164 34.0443 78.782 34.1541C78.8498 34.2619 78.8988 34.4039 78.9289 34.5737C78.9602 34.7315 78.9745 35.0156 78.9745 35.4661V40.8177C78.9745 41.495 79.0412 42.0578 79.1771 42.4929C79.3074 42.9156 79.5211 43.2864 79.8149 43.5941C80.1031 43.9026 80.4771 44.1257 80.9212 44.261C81.3842 44.4011 81.9451 44.471 82.5994 44.471C83.1358 44.471 83.6067 44.4165 84.0029 44.3099C84.3879 44.2024 84.724 44.0525 84.9933 43.8692C85.2649 43.6873 85.492 43.4607 85.6747 43.2C85.8737 42.9024 86.0217 42.5594 86.1196 42.1788C86.2311 41.7701 86.2834 41.2718 86.2834 40.6978V35.4661C86.2834 34.9979 86.3079 34.6737 86.358 34.4772C86.4123 34.2495 86.5181 34.0732 86.6684 33.95C86.7909 33.8512 86.9845 33.7622 87.2651 33.6845V33.628H84.3257V33.6845C84.6218 33.769 84.8132 33.8543 84.9289 33.9531C85.0679 34.0721 85.167 34.2374 85.2261 34.4483C85.2795 34.6414 85.3029 34.9734 85.3029 35.4661V40.549C85.3029 41.2264 85.2672 41.7734 85.1914 42.1788C85.1135 42.6026 84.9669 42.9678 84.7507 43.2564C84.5315 43.5551 84.2588 43.7816 83.9306 43.927C83.6123 44.0724 83.236 44.1457 82.8153 44.1457C82.3745 44.1457 81.9963 44.0979 81.6935 44.0025C81.3797 43.9026 81.1047 43.744 80.8767 43.5242C80.6485 43.3044 80.467 42.9967 80.3445 42.6094C80.2221 42.2363 80.1633 41.7701 80.1633 41.2264V35.4661C80.1633 35.0001 80.1867 34.6737 80.2356 34.4704C80.2922 34.2374 80.3991 34.0586 80.5584 33.9332C80.6797 33.8377 80.8722 33.7566 81.1348 33.6814V33.628H78.0185V33.6845ZM102.149 39.7134V42.4794C102.149 42.8701 102.162 43.1534 102.193 43.3288C102.224 43.504 102.271 43.6362 102.331 43.7271C102.395 43.8161 102.478 43.8905 102.583 43.9458C102.687 44.0025 102.873 44.0679 103.129 44.1355V44.5364H99.5943V44.1355C99.9427 44.0513 100.174 43.9537 100.291 43.8481C100.407 43.744 100.484 43.593 100.52 43.3976C100.557 43.2033 100.576 42.9047 100.576 42.5016V35.4661C100.576 35.0922 100.562 34.8191 100.534 34.6492C100.505 34.4772 100.459 34.3438 100.394 34.2495C100.33 34.1552 100.245 34.0786 100.139 34.0221C100.033 33.9643 99.8526 33.9012 99.5943 33.831V33.4327H103.739C105.044 33.4327 106.021 33.6623 106.668 34.124C107.317 34.585 107.64 35.2996 107.64 36.2711C107.64 37.0136 107.429 37.6463 107.009 38.1659C106.586 38.6866 105.954 39.0939 105.114 39.3869V39.4523C105.454 39.5879 105.747 39.7821 105.986 40.0339C106.231 40.286 106.498 40.6779 106.793 41.2084L107.549 42.5428C107.766 42.9325 107.952 43.2331 108.108 43.4363C108.265 43.6429 108.424 43.8015 108.585 43.9104C108.749 44.0168 108.966 44.0934 109.232 44.1355V44.5364H106.913C106.702 44.2478 106.498 43.9393 106.308 43.6084C106.12 43.2788 105.934 42.9412 105.749 42.5993L105.012 41.2407C104.788 40.83 104.606 40.5235 104.463 40.3315C104.322 40.135 104.191 39.9986 104.071 39.9197C103.951 39.8397 103.825 39.7866 103.687 39.7577C103.546 39.7277 103.345 39.7134 103.07 39.7134H102.149ZM102.149 34.1807V39.0116H103.097C103.581 39.0116 103.974 38.9796 104.277 38.9117C104.576 38.8429 104.856 38.7141 105.114 38.5254C105.369 38.3334 105.575 38.0716 105.73 37.7319C105.881 37.3934 105.956 36.9748 105.956 36.4831C105.956 35.968 105.867 35.5385 105.685 35.1974C105.504 34.8567 105.23 34.5959 104.863 34.4171C104.494 34.2363 103.997 34.1485 103.372 34.1485C102.87 34.1485 102.46 34.1586 102.149 34.1807Z" fill="#F8F7F7"/>
<path d="M109.433 44.7306H106.81L106.75 44.6495C106.532 44.3565 106.325 44.039 106.13 43.7027C105.945 43.3698 105.756 43.0335 105.57 42.6905L104.833 41.3327C104.615 40.9288 104.435 40.6301 104.3 40.4438C104.172 40.2683 104.054 40.1462 103.958 40.0808C103.86 40.0174 103.752 39.9719 103.641 39.9475C103.521 39.9208 103.328 39.9087 103.07 39.9087H102.349V42.4805C102.349 42.8536 102.363 43.1278 102.393 43.2977C102.423 43.4795 102.469 43.5739 102.502 43.6196C102.544 43.6817 102.603 43.735 102.681 43.7771C102.769 43.8248 102.94 43.8815 103.186 43.9514L103.332 43.9901V44.7306H99.3926V43.9859L99.5451 43.948C99.9526 43.8481 100.102 43.7538 100.152 43.7061C100.24 43.6306 100.294 43.5163 100.323 43.3619C100.358 43.1789 100.372 42.8791 100.372 42.5016V35.4661C100.372 35.1065 100.362 34.8412 100.337 34.677C100.313 34.5392 100.274 34.4283 100.226 34.3573C100.181 34.2885 100.12 34.233 100.042 34.1942C99.9791 34.1597 99.8401 34.0996 99.5395 34.0177L99.3926 33.9775V33.2373H103.739C105.082 33.2373 106.109 33.4826 106.788 33.9677C107.486 34.464 107.841 35.2387 107.841 36.272C107.841 37.0579 107.612 37.733 107.168 38.2857C106.785 38.7587 106.239 39.145 105.532 39.4369C105.759 39.5635 105.958 39.7198 106.133 39.902C106.393 40.1684 106.666 40.567 106.971 41.1174L107.724 42.4485C107.945 42.8446 108.123 43.1301 108.271 43.3221C108.411 43.5073 108.554 43.6527 108.701 43.7504C108.838 43.8417 109.028 43.9082 109.265 43.9447L109.433 43.9736V44.7306ZM107.016 44.341H109.03V44.2967C108.809 44.2467 108.623 44.1701 108.472 44.0701C108.291 43.9469 108.113 43.7726 107.947 43.5517C107.789 43.3465 107.598 43.0456 107.372 42.636L106.617 41.3027C106.33 40.789 106.071 40.4059 105.839 40.1673C105.619 39.9363 105.348 39.7566 105.037 39.6334L104.912 39.5812V39.2505L105.044 39.2036C105.846 38.9252 106.456 38.5356 106.851 38.0471C107.239 37.5654 107.437 36.9681 107.437 36.272C107.437 35.3574 107.148 34.7059 106.55 34.2818C105.941 33.8478 104.995 33.628 103.739 33.628H99.7956V33.6856C99.9948 33.7445 100.137 33.799 100.239 33.8512C100.369 33.9233 100.48 34.021 100.564 34.1431C100.644 34.2619 100.702 34.4205 100.733 34.6181C100.764 34.8036 100.776 35.0866 100.776 35.4661V42.5016C100.776 42.9069 100.758 43.2199 100.719 43.4296C100.674 43.6685 100.578 43.8571 100.428 43.9901C100.305 44.1024 100.096 44.199 99.7956 44.2866V44.341H102.927V44.2832C102.724 44.2234 102.582 44.1678 102.484 44.1156C102.349 44.0424 102.242 43.9469 102.162 43.8316C102.087 43.7196 102.033 43.5652 101.994 43.3619C101.961 43.1722 101.946 42.8746 101.946 42.4805V39.5191H103.07C103.363 39.5191 103.574 39.5346 103.728 39.568C103.89 39.6022 104.045 39.6665 104.185 39.7588C104.323 39.852 104.47 40.0008 104.628 40.2184C104.777 40.4227 104.96 40.7278 105.189 41.1497L105.928 42.5106C106.11 42.8513 106.298 43.1854 106.485 43.5163C106.651 43.8071 106.831 44.0836 107.016 44.341ZM103.097 39.207H101.946V33.9988L102.134 33.9854C102.45 33.9643 102.867 33.9542 103.372 33.9542C104.035 33.9542 104.551 34.0488 104.953 34.2408C105.357 34.4396 105.663 34.7315 105.865 35.1087C106.06 35.4773 106.158 35.9402 106.158 36.4831C106.158 37.0004 106.076 37.4464 105.912 37.8097C105.748 38.1779 105.517 38.4721 105.236 38.6798C104.957 38.8842 104.652 39.0262 104.323 39.1017C104.004 39.1727 103.602 39.207 103.097 39.207ZM102.349 38.8185H103.097C103.564 38.8185 103.947 38.7873 104.229 38.7219C104.503 38.6588 104.758 38.5412 104.991 38.3713C105.219 38.2012 105.405 37.9593 105.543 37.6553C105.684 37.3412 105.758 36.9471 105.758 36.4831C105.758 36.0033 105.672 35.5983 105.506 35.2876C105.342 34.981 105.101 34.7537 104.772 34.5892C104.432 34.4261 103.963 34.345 103.372 34.345C102.973 34.345 102.628 34.3506 102.349 34.3629V38.8185ZM126.302 44.5364V44.1367C126.58 44.0836 126.788 44.0236 126.927 43.9593C127.063 43.8947 127.164 43.8038 127.231 43.6873C127.298 43.5708 127.332 43.413 127.332 43.2188C127.332 43.0324 127.308 42.8337 127.266 42.6214C127.222 42.4073 127.154 42.1653 127.073 41.9L126.765 40.8522H122.863L122.577 41.6491C122.432 42.0499 122.336 42.3539 122.292 42.5605C122.247 42.766 122.223 42.9513 122.223 43.1222C122.223 43.4453 122.311 43.6839 122.479 43.8349C122.652 43.989 122.913 44.0901 123.263 44.1367V44.5364H119.69V44.1367C119.999 44.0901 120.272 43.9127 120.505 43.6084C120.735 43.3052 120.964 42.8735 121.178 42.3073L124.669 33.3027H125.99L128.838 42.373C128.97 42.7958 129.091 43.1188 129.194 43.342C129.297 43.5629 129.426 43.7372 129.566 43.8605C129.713 43.9859 129.91 44.0791 130.159 44.1367V44.5364H126.302ZM123.084 40.144H126.587L124.995 34.8968L123.084 40.144Z" fill="#F8F7F7"/>
<path d="M130.363 44.7307H126.1V43.9782L126.264 43.947C126.587 43.8838 126.758 43.8249 126.839 43.785C126.937 43.7373 127.011 43.6742 127.053 43.5942C127.104 43.5055 127.131 43.3789 127.131 43.22C127.131 43.049 127.108 42.8582 127.067 42.6594C127.028 42.4674 126.971 42.2454 126.88 41.9568L126.611 41.0476H123.007L122.767 41.7126C122.621 42.1165 122.532 42.4065 122.489 42.5996C122.448 42.8015 122.426 42.9702 122.426 43.1223C122.426 43.3876 122.49 43.5807 122.616 43.693C122.758 43.8184 122.983 43.9026 123.291 43.945L123.464 43.9706V44.7307H119.486V43.9737L119.656 43.945C119.915 43.906 120.139 43.7561 120.342 43.4942C120.563 43.2023 120.784 42.7793 120.991 42.242L124.528 33.1074H126.141L126.183 33.2452L129.032 42.3164C129.161 42.7217 129.276 43.0403 129.38 43.2601C129.469 43.4555 129.578 43.6085 129.699 43.7163C129.82 43.8196 129.991 43.8982 130.208 43.9481L130.363 43.986V44.7307ZM126.505 44.3411H129.962V44.2858C129.748 44.219 129.57 44.1247 129.433 44.0071C129.269 43.8628 129.125 43.6652 129.013 43.4198C128.9 43.1846 128.778 42.8514 128.645 42.4309L125.84 33.4959H124.81L121.369 42.3765C121.148 42.9491 120.913 43.4055 120.667 43.7252C120.446 44.0138 120.184 44.2058 119.89 44.2923V44.3411H123.062V44.3001C122.756 44.2401 122.514 44.1314 122.343 43.9815C122.129 43.7873 122.022 43.4998 122.022 43.1223C122.022 42.9426 122.047 42.7484 122.097 42.5219C122.139 42.3099 122.234 42.0045 122.386 41.5849L122.719 40.6569H126.916L127.267 41.8468C127.36 42.1455 127.42 42.3798 127.463 42.5839C127.508 42.8093 127.535 43.0212 127.535 43.22C127.535 43.451 127.493 43.634 127.406 43.7828C127.322 43.9304 127.192 44.0492 127.02 44.1337C126.891 44.1946 126.722 44.2468 126.505 44.2934V44.3411ZM126.857 40.3394H122.804L125.013 34.2608L126.857 40.3394ZM123.375 39.9498H126.317L124.979 35.533L123.375 39.9498ZM148.462 40.1354C148.664 40.4615 148.832 40.7448 148.97 40.9901C149.106 41.2332 149.249 41.5071 149.392 41.8125H149.502C149.477 41.4805 149.45 40.8234 149.427 39.8389C149.403 38.8554 149.392 37.9661 149.392 37.1737V35.4664C149.392 35.0923 149.379 34.8169 149.358 34.6448C149.336 34.4708 149.298 34.3375 149.238 34.2454C149.18 34.1533 149.098 34.0789 148.997 34.0222C148.891 33.9644 148.713 33.9012 148.454 33.8314V33.4328H151.469V33.8314C151.219 33.8968 151.042 33.9568 150.938 34.0099C150.833 34.0643 150.752 34.1354 150.689 34.2221C150.624 34.3085 150.573 34.4385 150.538 34.6106C150.507 34.7849 150.488 35.0712 150.488 35.4664V44.5853H149.444L144.781 36.9881C144.489 36.5143 144.284 36.1713 144.161 35.9537C144.041 35.7373 143.923 35.5229 143.817 35.3121H143.674C143.716 35.7306 143.745 36.4854 143.761 37.5753C143.776 38.6701 143.783 39.7578 143.783 40.8424V42.5019C143.783 42.8671 143.796 43.1302 143.821 43.3011C143.845 43.4687 143.891 43.5986 143.95 43.6997C144.007 43.7974 144.091 43.8771 144.209 43.9428C144.321 44.0071 144.507 44.0725 144.764 44.1359V44.5365H141.708V44.1359C142.051 44.0514 142.284 43.9537 142.403 43.8485C142.519 43.7441 142.595 43.593 142.631 43.3977C142.669 43.2034 142.685 42.9048 142.685 42.5019V35.4664C142.685 35.0923 142.672 34.8191 142.641 34.6493C142.616 34.4772 142.573 34.3442 142.507 34.2499C142.442 34.1553 142.358 34.0789 142.253 34.0222C142.147 33.9644 141.965 33.9012 141.708 33.8314V33.4328H144.328L148.462 40.1354Z" fill="#F8F7F7"/>
<path d="M150.689 44.7793H149.328L144.608 37.0867C144.314 36.6126 144.107 36.2654 143.982 36.0489C143.96 36.0077 143.94 35.9656 143.916 35.9268C143.939 36.3485 143.952 36.9003 143.961 37.5729C143.975 38.6662 143.986 39.7587 143.986 40.8419V42.5014C143.986 42.8546 143.998 43.1153 144.022 43.2731C144.044 43.4162 144.077 43.5271 144.122 43.5993C144.164 43.6703 144.225 43.7281 144.308 43.7725C144.405 43.8292 144.573 43.8881 144.816 43.9479L144.965 43.9889V44.7305H141.506V43.9858L141.658 43.9479C142.065 43.8457 142.214 43.7536 142.266 43.7059C142.35 43.6304 142.405 43.5139 142.431 43.364C142.465 43.1841 142.483 42.8955 142.483 42.5014V35.4659C142.483 35.1052 142.469 34.84 142.446 34.6791C142.419 34.5337 142.384 34.4248 142.337 34.3572C142.291 34.2884 142.229 34.2339 142.153 34.1918C142.09 34.1595 141.952 34.1006 141.655 34.0175L141.506 33.9785V33.2383H144.443L148.634 40.036C148.838 40.3636 149.006 40.6499 149.144 40.8953C149.184 40.964 149.224 41.0339 149.26 41.1072C149.248 40.7765 149.237 40.3558 149.224 39.8429C149.2 38.8582 149.189 37.967 149.189 37.1732V35.4659C149.189 35.1142 149.18 34.8377 149.156 34.669C149.133 34.486 149.094 34.3948 149.066 34.3482C149.025 34.285 148.968 34.2328 148.893 34.1907C148.833 34.1573 148.696 34.0995 148.4 34.0175L148.254 33.9785V33.2383H151.669V33.9796L151.521 34.0175C151.23 34.0941 151.094 34.1494 151.035 34.1806C150.956 34.2216 150.898 34.2704 150.85 34.335C150.818 34.3793 150.775 34.4669 150.737 34.6491C150.714 34.76 150.689 34.9944 150.689 35.4659V44.7793ZM149.556 44.3908H150.288V35.4659C150.288 35.0642 150.306 34.7633 150.341 34.5769C150.381 34.3715 150.442 34.2182 150.523 34.1085C150.608 33.9953 150.712 33.9041 150.841 33.8387C150.937 33.7887 151.077 33.7376 151.269 33.6843V33.6279H148.654V33.6854C148.853 33.7444 148.996 33.8 149.094 33.8519C149.229 33.9285 149.333 34.0251 149.409 34.1449C149.484 34.2595 149.532 34.4169 149.556 34.6213C149.582 34.8099 149.595 35.0943 149.595 35.4659V37.1732C149.595 37.9636 149.606 38.8518 149.63 39.8331C149.651 40.8321 149.673 41.4735 149.704 41.7955L149.721 42.0054H149.262L149.208 41.8932C149.066 41.5934 148.926 41.3239 148.79 41.0816C148.654 40.8408 148.487 40.559 148.286 40.2348L144.214 33.6279H141.91V33.6854C142.108 33.7444 142.252 33.8 142.352 33.8519C142.482 33.9232 142.591 34.0209 142.675 34.143C142.755 34.2595 142.808 34.4136 142.842 34.6179C142.875 34.8001 142.887 35.0786 142.887 35.4659V42.5014C142.887 42.9245 142.871 43.2296 142.829 43.4328C142.786 43.6672 142.69 43.8536 142.541 43.99C142.414 44.1023 142.209 44.2 141.91 44.2853V44.3409H144.56V44.2853C144.36 44.2278 144.209 44.1677 144.104 44.1087C143.961 44.0313 143.849 43.9246 143.772 43.7969C143.704 43.6781 143.65 43.5238 143.617 43.3284C143.595 43.1499 143.583 42.879 143.583 42.5014V40.8419C143.583 39.7587 143.575 38.6696 143.558 37.5796C143.54 36.4972 143.511 35.7402 143.475 35.3284L143.453 35.1176H143.943L143.998 35.2285C144.101 35.4351 144.219 35.647 144.337 35.8612C144.46 36.0765 144.664 36.4195 144.953 36.888L149.556 44.3908ZM166.223 43.9824C166.223 44.7151 166.134 45.3087 165.957 45.7652C165.782 46.2213 165.486 46.6042 165.068 46.9194C164.652 47.2346 164.072 47.5033 163.324 47.7253L163.047 47.0084C163.54 46.8251 163.891 46.6398 164.097 46.4523C164.3 46.2656 164.444 46.0293 164.523 45.7494C164.606 45.4665 164.646 45.0856 164.646 44.6073V35.4659C164.646 34.9944 164.623 34.6713 164.574 34.4981C164.526 34.3238 164.448 34.1918 164.341 34.0995C164.234 34.0063 164.008 33.9187 163.664 33.8308V33.4325H167.201V33.8308C166.953 33.8909 166.778 33.9496 166.668 34.0096C166.56 34.0686 166.473 34.1449 166.409 34.2339C166.342 34.3226 166.297 34.4571 166.266 34.6367C166.237 34.8155 166.223 35.092 166.223 35.4659V43.9824Z" fill="#F8F7F7"/>
<path d="M163.202 47.9666L162.791 46.8974L162.975 46.8286C163.443 46.6509 163.774 46.4791 163.958 46.309C164.138 46.1471 164.26 45.9419 164.33 45.6965C164.406 45.4321 164.445 45.068 164.445 44.6085V35.4661C164.445 34.9024 164.41 34.656 164.381 34.5471C164.343 34.4106 164.287 34.3107 164.208 34.2442C164.162 34.2063 164.022 34.124 163.615 34.0177L163.464 33.9809V33.2373H167.403V33.982L167.252 34.0199C167.024 34.0732 166.861 34.1285 166.771 34.1796C166.684 34.2251 166.623 34.2784 166.577 34.345C166.543 34.3915 166.495 34.4817 166.466 34.6692C166.437 34.8311 166.425 35.102 166.425 35.4661V43.9826C166.425 44.7374 166.329 45.3588 166.147 45.8341C165.959 46.3203 165.639 46.7377 165.195 47.0728C164.761 47.4004 164.153 47.6833 163.387 47.9121L163.202 47.9666ZM163.304 47.1194L163.446 47.4824C164.082 47.2805 164.585 47.0386 164.945 46.7666C165.332 46.4758 165.607 46.117 165.768 45.6965C165.937 45.2645 166.021 44.6908 166.021 43.9826V35.4661C166.021 35.0745 166.036 34.7946 166.066 34.606C166.103 34.3927 166.161 34.2341 166.246 34.121C166.324 34.0098 166.431 33.9144 166.572 33.8389C166.669 33.7855 166.808 33.7344 166.998 33.6814V33.628H163.868V33.6845C164.162 33.7678 164.36 33.8543 164.476 33.9531C164.614 34.071 164.712 34.2363 164.771 34.4483C164.824 34.6414 164.851 34.9734 164.851 35.4661V44.6085C164.851 45.1026 164.806 45.5023 164.719 45.7996C164.631 46.1117 164.47 46.3792 164.236 46.5945C164.035 46.7741 163.732 46.9473 163.304 47.1194ZM187.311 33.4327V35.8891H186.489C186.407 35.6238 186.322 35.392 186.232 35.1899C186.141 34.9878 186.051 34.8202 185.955 34.6857C185.86 34.5482 185.758 34.4415 185.643 34.3596C185.526 34.2784 185.392 34.2251 185.235 34.1942C185.079 34.1619 184.894 34.1496 184.676 34.1496H182.028V38.4101H183.819C184.065 38.4101 184.26 38.3778 184.397 38.309C184.538 38.2425 184.653 38.1271 184.744 37.9626C184.838 37.8007 184.925 37.5475 185.01 37.1991H185.796V40.3239H185.01C184.929 39.9963 184.845 39.751 184.747 39.5845C184.653 39.4214 184.544 39.3036 184.411 39.2325C184.278 39.1615 184.08 39.1261 183.819 39.1261H182.028V43.8203H184.632C184.906 43.8203 185.129 43.797 185.296 43.7504C185.47 43.7061 185.616 43.6283 185.741 43.5163C185.86 43.404 185.97 43.2598 186.065 43.0801C186.159 42.9013 186.24 42.716 186.303 42.5218C186.368 42.3306 186.457 42.0499 186.568 41.6814H187.395L187.237 44.5364H179.486V44.1367C179.829 44.0513 180.061 43.9548 180.18 43.8481C180.294 43.744 180.374 43.593 180.409 43.3987C180.446 43.2033 180.465 42.9047 180.465 42.5016V35.4661C180.465 35.0922 180.449 34.8191 180.421 34.6492C180.394 34.4772 180.348 34.3438 180.282 34.2495C180.222 34.1552 180.132 34.0786 180.028 34.0221C179.922 33.9643 179.743 33.9012 179.486 33.831V33.4327H187.311Z" fill="#F8F7F7"/>
<path d="M187.427 44.7306H179.284V43.9859L179.434 43.948C179.842 43.8481 179.99 43.7538 180.043 43.7061C180.123 43.6306 180.183 43.5141 180.212 43.3642C180.244 43.1843 180.261 42.8957 180.261 42.5016V35.4661C180.261 35.1054 180.249 34.8401 180.225 34.6793C180.2 34.5361 180.162 34.4261 180.113 34.3573C180.069 34.2919 180.008 34.2341 179.929 34.192C179.868 34.1597 179.728 34.1007 179.431 34.0177L179.284 33.9775V33.2373H187.51V36.0845H186.34L186.297 35.9447C186.213 35.6783 186.13 35.4551 186.047 35.2665C185.96 35.0723 185.874 34.9179 185.786 34.7946C185.706 34.677 185.616 34.5827 185.524 34.517C185.429 34.4527 185.323 34.4084 185.195 34.384C185.056 34.3573 184.883 34.345 184.675 34.345H182.229V38.2181H183.82C184.028 38.2181 184.2 38.1869 184.306 38.1358C184.411 38.0859 184.494 37.9994 184.569 37.8683C184.65 37.7229 184.732 37.4821 184.81 37.1545L184.849 37.0038H186V40.517H184.849L184.81 40.3671C184.739 40.0564 184.657 39.8265 184.572 39.6822C184.494 39.5466 184.411 39.4557 184.313 39.4024C184.243 39.3647 184.104 39.3226 183.82 39.3226H182.229V43.6261H184.631C184.89 43.6261 185.091 43.605 185.241 43.5652C185.383 43.5273 185.501 43.4641 185.601 43.3732C185.707 43.2766 185.804 43.1478 185.884 42.9934C185.982 42.8092 186.057 42.6338 186.11 42.4651C186.177 42.2697 186.264 41.9932 186.373 41.6269L186.417 41.4871H187.608L187.427 44.7306ZM179.687 44.341H187.045L187.182 41.8767H186.719C186.624 42.1788 186.551 42.4163 186.492 42.5838C186.434 42.7725 186.35 42.9645 186.244 43.1688C186.14 43.3642 186.018 43.5273 185.877 43.6572C185.724 43.7937 185.552 43.8849 185.352 43.9393C185.164 43.989 184.929 44.0134 184.631 44.0134H181.826V38.9319H183.82C184.119 38.9319 184.344 38.9751 184.51 39.0638C184.672 39.1517 184.81 39.2948 184.925 39.4925C185.014 39.6443 185.091 39.8532 185.165 40.1285H185.595V37.3945H185.167C185.089 37.6831 185.01 37.9006 184.922 38.057C184.807 38.2557 184.667 38.4 184.486 38.4845C184.32 38.5645 184.097 38.6054 183.82 38.6054H181.826V33.9542H184.675C184.908 33.9542 185.105 33.9711 185.273 34.0019C185.459 34.0376 185.622 34.1064 185.762 34.2029C185.892 34.295 186.013 34.4205 186.122 34.5771C186.222 34.718 186.319 34.8946 186.417 35.1121C186.491 35.2797 186.565 35.4694 186.638 35.6937H187.108V33.628H179.687V33.6856C179.885 33.7445 180.029 33.8001 180.126 33.8523C180.261 33.9267 180.373 34.0233 180.452 34.1454C180.533 34.2607 180.586 34.4171 180.619 34.6181C180.65 34.8003 180.667 35.0787 180.667 35.4661V42.5016C180.667 42.9246 180.645 43.23 180.604 43.433C180.565 43.6685 180.466 43.856 180.317 43.9901C180.191 44.1024 179.984 44.199 179.687 44.2854V44.341Z" fill="#F8F7F7"/>
</g>
<defs>
<clipPath id="clip0_1284_6658">
<rect width="188" height="48" fill="white"/>
</clipPath>
</defs>
</svg>
