<svg id="client_11" xmlns="http://www.w3.org/2000/svg" width="139.968" height="45.623" viewBox="0 0 139.968 45.623">
  <path id="Fill-1" d="M20.7,24.636c-.1-1.93-.156-3.541-.274-5.148a10.823,10.823,0,0,0-.743-3.348,3.96,3.96,0,0,0-2.649-2.517,6.07,6.07,0,0,0-4.521.4A8.172,8.172,0,0,0,8,21.12c-.109,1.447-.033,2.909-.025,4.364.006,1.011-.022,2.028.074,3.032a6.694,6.694,0,0,0,2.411,4.647,7.145,7.145,0,0,0,6.13,1.533,3.938,3.938,0,0,0,3.271-2.8,8.229,8.229,0,0,0,.436-1.806C20.473,28.171,20.586,26.247,20.7,24.636ZM0,1.455c1.476,0,2.953.014,4.428-.021a9.98,9.98,0,0,0,1.717-.229A3.429,3.429,0,0,0,7.959.165V17.82l.09.026c.045-.094.09-.187.134-.282a8.171,8.171,0,0,1,4.67-4.59,7.87,7.87,0,0,1,6.649.65,11.339,11.339,0,0,1,5.319,6.355,11.669,11.669,0,0,1-2.252,12.334A9.481,9.481,0,0,1,13.913,35.6a7.374,7.374,0,0,1-5.724-4.065.657.657,0,0,0-.2-.255v3.777H0v-.823H3.58V2.341H0V1.455Z" fill="#fff"/>
  <path id="Fill-4" d="M117.948,0c.327.105.664.187.979.32a2.894,2.894,0,0,1,1.919,2.871,2.233,2.233,0,0,1-1.388,2.091,2.375,2.375,0,0,1-2.636-.354,2.377,2.377,0,0,1-.768-2.546,4.821,4.821,0,0,1,.537-.914c.086-.156.231-.383.176-.488a.694.694,0,0,0-.484-.261,2.256,2.256,0,0,0-1.522.416,8.258,8.258,0,0,0-2.376,2.59,28.391,28.391,0,0,0-3.167,6.826c-.308.962-.621,1.923-.93,2.884-.032.1-.058.2-.1.336h4.358v.842H107.91c-.393,1.152-.779,2.275-1.159,3.4-1.562,4.626-3.1,9.261-4.69,13.877a35.653,35.653,0,0,1-3.914,8.322,18.444,18.444,0,0,1-3.06,3.767,6.062,6.062,0,0,1-3.637,1.592.545.545,0,0,0-.142.051H90.17a7.592,7.592,0,0,1-.866-.259A2.842,2.842,0,0,1,87.517,43.3a2.28,2.28,0,0,1,1.089-2.46,2.532,2.532,0,0,1,2.734.236,1.874,1.874,0,0,1,.2,2.611c-.107.116-.261.2-.342.325-.1.156-.23.375-.186.515a.579.579,0,0,0,.442.316,3.546,3.546,0,0,0,1.141-.152,4.117,4.117,0,0,0,1.841-1.444,10.92,10.92,0,0,0,1.878-3.767c1.014-3.387,2.013-6.779,2.966-10.184,1.263-4.511,2.45-9.043,3.92-13.493.125-.377.249-.754.386-1.171H98.794v-.847h.338c1.466,0,2.932-.008,4.4.007a.416.416,0,0,0,.465-.336,26.63,26.63,0,0,1,5.5-9.144A15.023,15.023,0,0,1,114.251.7a17.3,17.3,0,0,1,2.1-.647A1.5,1.5,0,0,0,116.493,0h1.455" fill="#fff"/>
  <path id="Fill-5" d="M139.968,31.892a6.164,6.164,0,0,1-1.438,2.2,6,6,0,0,1-4.686,1.564,12.476,12.476,0,0,1-2.582-.391,3.839,3.839,0,0,1-2.984-3.9c-.03-1.855-.015-3.711-.015-5.567q0-5.377,0-10.754v-.409h-4.484v-.814c.566-.03,1.123-.04,1.676-.092a6.609,6.609,0,0,0,4.188-1.7,7.069,7.069,0,0,0,1.786-3.118c.234-.774.408-1.567.615-2.371h.582v7.242h7.14v.838h-7.126V15q0,8.587,0,17.175a4.722,4.722,0,0,0,.1.94,1.958,1.958,0,0,0,1.953,1.69,4.082,4.082,0,0,0,4.136-2.428c.071-.129.132-.263.194-.4s.12-.266.185-.41l.753.13v.19" fill="#fff"/>
  <path id="Fill-6" d="M72.252,34.2h4.065v.837H63.806V34.2h4.079v-.373q0-8.273-.007-16.547a6.632,6.632,0,0,0-.167-1.471A2.806,2.806,0,0,0,64.488,13.5a7.2,7.2,0,0,0-5.11,2.871,17.227,17.227,0,0,0-1.972,3.083.736.736,0,0,0-.075.331q-.006,7.087,0,14.174c0,.071.012.143.021.242h3.886v.842H48.884v-.816c.11-.007.23-.02.351-.02,1.139,0,2.278-.007,3.417,0,.232,0,.306-.061.306-.3q-.01-9.507-.006-19.014c0-.072-.009-.144-.017-.256H48.879v-.825c.106,0,.217-.014.328-.014,1.677,0,3.353,0,5.03-.014a8.614,8.614,0,0,0,1.1-.073,2.915,2.915,0,0,0,1.983-1.036v5.218l.079.027c.057-.09.116-.179.17-.271a11.617,11.617,0,0,1,2.586-3.126,7.9,7.9,0,0,1,6.024-1.841,9.086,9.086,0,0,1,3.2.777,4.888,4.888,0,0,1,2.808,4.139,11.327,11.327,0,0,1,.055,1.262q.006,7.451,0,14.9V34.2" fill="#fff"/>
  <path id="Fill-7" d="M81.2,21.314h2.68q2.878,0,5.756,0c.47,0,.563-.09.559-.549,0-.653,0-1.307-.037-1.959a8.528,8.528,0,0,0-.63-2.95,3.53,3.53,0,0,0-2.343-2.182A4.3,4.3,0,0,0,81.7,16.479,13.665,13.665,0,0,0,81.2,21.314Zm13.616,6.36h.825c-.034.2-.055.378-.1.556a9.042,9.042,0,0,1-9.612,7.427,9.641,9.641,0,0,1-6.355-2.663A10.62,10.62,0,0,1,76.574,27.5a12.771,12.771,0,0,1,3.377-12.15,8.148,8.148,0,0,1,4.985-2.638,7.581,7.581,0,0,1,5.511,1.365,11.379,11.379,0,0,1,4.671,7.012c.252,1.134-.048,1.057-.852,1.057q-6.326-.008-12.652,0h-.419V22.5c0,1.845-.017,3.69.006,5.535a11.322,11.322,0,0,0,.538,3.577,4.363,4.363,0,0,0,4.032,3.17,8.091,8.091,0,0,0,6.551-2.219A8.526,8.526,0,0,0,94.728,28.1c.029-.133.057-.267.092-.427Z" fill="#fff"/>
  <path id="Fill-8" d="M33.759,21.3c.106.006.2.017.29.017h8.128a2.057,2.057,0,0,0,.221-.01.343.343,0,0,0,.342-.375,15.522,15.522,0,0,0-.354-4.206,3.8,3.8,0,0,0-3.639-3.213,4.081,4.081,0,0,0-4.3,2.47,8.243,8.243,0,0,0-.686,3.19C33.738,19.871,33.759,20.575,33.759,21.3Zm-.022.851c0,.726,0,1.4,0,2.073.014,1.591,0,3.184.063,4.773a7.571,7.571,0,0,0,1.025,3.769,4.236,4.236,0,0,0,3.436,2.019A8.083,8.083,0,0,0,45.224,32.2a8.707,8.707,0,0,0,2.1-4.321c.01-.052.022-.1.034-.154,0-.009.012-.016.033-.042h.833c-.135.526-.234,1.04-.4,1.531a8.7,8.7,0,0,1-6.317,6.147,9.8,9.8,0,0,1-11.893-6.27A12.692,12.692,0,0,1,32.2,15.667,8.424,8.424,0,0,1,37,12.795a7.583,7.583,0,0,1,5.983,1.274,11.636,11.636,0,0,1,4.626,6.693,4.19,4.19,0,0,1,.115.937c.012.3-.136.433-.445.448-.095,0-.19,0-.285,0H33.737Z" fill="#fff"/>
  <path id="Fill-9" d="M50.46,44.439V40.514h.409v4.718c-.226.11-.368,0-.512-.164q-1.54-1.783-3.089-3.557c-.066-.076-.137-.149-.256-.279v4.02h-.419V40.525a.453.453,0,0,1,.544.187c1.009,1.176,2.027,2.345,3.042,3.515.068.078.138.154.208.231l.074-.019" fill="#fff"/>
  <path id="Fill-10" d="M20.193,44.541V40.518h.414V45.24c-.225.1-.367-.009-.51-.175q-1.538-1.782-3.087-3.556c-.061-.071-.125-.139-.234-.26v4h-.426V40.523a.439.439,0,0,1,.53.188c1.077,1.255,2.163,2.5,3.314,3.829" fill="#fff"/>
  <path id="Fill-11" d="M81.754,42.886a2.062,2.062,0,1,0-2.075,2.041A2.035,2.035,0,0,0,81.754,42.886Zm-2.106,2.448a2.451,2.451,0,1,1,2.564-2.278,2.5,2.5,0,0,1-2.564,2.278Z" fill="#fff"/>
  <path id="Fill-12" d="M33.909,40.837v1.826a11.933,11.933,0,0,0,1.242-.095.778.778,0,0,0,.672-.8.765.765,0,0,0-.641-.821A11.063,11.063,0,0,0,33.909,40.837Zm-.022,2.224v2.184h-.424V40.506c.533,0,1.051-.028,1.564.007a1.244,1.244,0,0,1,1.225.919,1.222,1.222,0,0,1-.746,1.444c.265.386.535.769.795,1.158s.515.789.784,1.2a.494.494,0,0,1-.673-.247c-.23-.414-.533-.787-.754-1.2a1.435,1.435,0,0,0-1.77-.723Z" fill="#fff"/>
  <path id="Fill-13" d="M40.534,43.244h1.895l-.95-2.077Zm3.25,1.988c-.3.119-.46.02-.569-.259-.146-.371-.337-.724-.491-1.092a.32.32,0,0,0-.349-.235c-.59.012-1.18.013-1.769,0a.341.341,0,0,0-.373.25c-.149.359-.345.7-.479,1.063a.4.4,0,0,1-.584.281c.113-.255.224-.51.34-.762q.869-1.891,1.745-3.78a1.133,1.133,0,0,1,.234-.252,1.069,1.069,0,0,1,.214.234q1.014,2.189,2.016,4.385c.025.054.044.111.065.166Z" fill="#fff"/>
  <path id="Fill-14" d="M11.221,41.164l-.941,2.078h1.89Zm2.31,4.069c-.3.1-.464.032-.573-.259a9.9,9.9,0,0,0-.514-1.116.416.416,0,0,0-.293-.2c-.621-.018-1.243-.017-1.863,0a.382.382,0,0,0-.274.178c-.188.364-.348.742-.519,1.115-.156.341-.156.34-.563.3a1.548,1.548,0,0,1,.061-.2q1-2.179,2-4.354a1.151,1.151,0,0,1,.233-.254,1.246,1.246,0,0,1,.227.262q1,2.159,1.989,4.325c.029.064.055.129.086.2Z" fill="#fff"/>
  <path id="Fill-15" d="M74.405,44.454c.119.337-.019.479-.286.584a3.193,3.193,0,0,1-2.428.094,2.434,2.434,0,0,1,.849-4.684,9.468,9.468,0,0,1,1.544.256c.322.06.342.277.278.51a13.772,13.772,0,0,0-1.433-.362,2.046,2.046,0,1,0-.345,4.076,3.238,3.238,0,0,0,1.5-.327l.324-.146" fill="#fff"/>
  <path id="Fill-16" d="M58.157,41.223a12.03,12.03,0,0,0-1.347-.36,1.9,1.9,0,0,0-2.04.894,2.025,2.025,0,0,0,.021,2.3,1.97,1.97,0,0,0,2.1.839,9.4,9.4,0,0,0,1.291-.384c.1.338.088.373-.241.508a2.877,2.877,0,0,1-3.123-.291,2.437,2.437,0,0,1,1.513-4.279,7.1,7.1,0,0,1,1.513.25c.375.091.369.13.312.525" fill="#fff"/>
  <path id="Fill-17" d="M6.166,41.155a5.753,5.753,0,0,0-.855-.292,1.29,1.29,0,0,0-.642.07.768.768,0,0,0-.522.725.721.721,0,0,0,.446.735c.37.175.763.307,1.125.5a1.255,1.255,0,0,1,.451,1.841,1.48,1.48,0,0,1-1.6.55c-.142-.035-.277-.1-.416-.147-.314-.111-.51-.292-.374-.7.135.083.27.169.408.249a1.284,1.284,0,0,0,1.114.183.872.872,0,0,0,.627-.793.781.781,0,0,0-.452-.8c-.262-.133-.535-.244-.808-.356-.828-.338-1.139-.848-.936-1.543a1.419,1.419,0,0,1,1.7-.918,2.74,2.74,0,0,1,.4.109c.395.139.4.151.344.59" fill="#fff"/>
  <path id="Fill-18" d="M64.726,44.461a6.44,6.44,0,0,0,.918.426.938.938,0,0,0,1.24-.94.756.756,0,0,0-.421-.661c-.268-.143-.553-.255-.834-.372-.812-.337-1.12-.828-.947-1.517a1.406,1.406,0,0,1,1.587-.957,3.194,3.194,0,0,1,.49.116c.3.081.492.237.353.617-.13-.062-.266-.128-.4-.191a1.3,1.3,0,0,0-.98-.1.831.831,0,0,0-.612.694.724.724,0,0,0,.424.806c.272.136.56.239.842.355a1.275,1.275,0,0,1,.9,1.662,1.413,1.413,0,0,1-1.765.874c-.152-.039-.295-.112-.444-.161a.467.467,0,0,1-.35-.654" fill="#fff"/>
  <path id="Fill-19" d="M30.61,40.513v.352H28.593V42.58h1.813v.366H28.578v2.308h-.428V40.513h2.46" fill="#fff"/>
  <path id="Fill-20" d="M61.151,40.506h.4v4.747h-.4V40.506" fill="#fff"/>
  <path id="Fill-21" d="M120.861,34.2h4.147v.836H112.392V34.2h4.092V14.636h-1.705v-.841c.119,0,.241,0,.362,0,1.084-.034,2.171-.037,3.252-.114a3.911,3.911,0,0,0,2.468-1.027V34.2" fill="#fff"/>
</svg>
